# https://github.com/mikedh/trimesh

o backlight.stl
v 0.69999999 -2.00000000 0.00000000
v 4.80000019 3.00000000 0.00000000
v 4.80553770 2.88728023 0.00000000
v 5.50991392 1.93753850 0.00000000
v 5.61617279 1.89951861 0.00000000
v 5.72564602 1.87209690 0.00000000
v 5.83728027 1.85553753 0.00000000
v 5.22044754 2.11103797 0.00000000
v 5.31109428 2.04380989 0.00000000
v 5.06103802 2.27044773 0.00000000
v 5.13682699 2.18682718 0.00000000
v 4.99381018 2.36109424 0.00000000
v 4.88753843 2.55991411 0.00000000
v 4.93579054 2.45789385 0.00000000
v 5.40789366 1.98579049 0.00000000
v 4.84951878 2.66617250 0.00000000
v 4.82209682 2.77564621 0.00000000
v -2.00000000 -2.00000000 0.00000000
v 0.69999999 32.38298035 0.00000000
v 1.97809339 -15.33718872 0.00000000
v 2.25416422 -15.54193592 0.00000000
v 1.97809339 -15.33718872 12.00000000
v 1.28785086 -14.57562351 0.00000000
v 1.49259889 -14.85169411 0.00000000
v 1.28785086 -14.57562351 12.00000000
v 1.72342074 -15.10636616 0.00000000
v 1.49259889 -14.85169411 12.00000000
v 1.72342074 -15.10636616 12.00000000
v 2.54897451 -15.71863842 0.00000000
v 2.85968494 -15.86559391 0.00000000
v 2.54897451 -15.71863842 12.00000000
v 2.25416422 -15.54193592 12.00000000
v 3.18330336 -15.98138618 0.00000000
v 2.85968494 -15.86559391 12.00000000
v 3.51671338 -16.06490135 0.00000000
v 3.18330336 -15.98138618 12.00000000
v 1.11114836 -14.28081322 12.00000000
v 1.11114836 -14.28081322 0.00000000
v 0.96419322 -13.97010231 12.00000000
v 0.96419322 -13.97010231 0.00000000
v 0.84840071 -13.64648342 12.00000000
v 0.84840071 -13.64648342 0.00000000
v 0.76488590 -13.31307411 12.00000000
v 0.76488590 -13.31307411 0.00000000
v 0.71445310 -12.97308350 0.00000000
v 0.71445310 -12.97308350 12.00000000
v 0.69999999 -12.67888451 12.00000000
v 0.69999999 -12.67888451 0.00000000
v 3.85670352 -16.11533356 0.00000000
v 3.51671338 -16.06490135 12.00000000
v 4.15090275 -16.12978745 0.00000000
v 3.85670352 -16.11533356 12.00000000
v 0.69999999 -2.00000000 12.00000000
v -2.00000000 -2.00000000 12.00000000
v 4.80553770 27.27025986 0.00000000
v 4.80553770 3.11271977 0.00000000
v 4.82209682 27.15862465 0.00000000
v 4.82209682 3.22435379 0.00000000
v 4.84951878 27.04915047 0.00000000
v 4.84951878 3.33382750 0.00000000
v 4.88753843 26.94289207 0.00000000
v 4.88753843 3.44008589 0.00000000
v 4.93579054 26.84087181 0.00000000
v 4.93579054 3.54210615 0.00000000
v 4.99381018 26.74407387 0.00000000
v 4.99381018 3.63890576 0.00000000
v 5.06103802 26.65342712 0.00000000
v 5.06103802 3.72955227 0.00000000
v 5.13682699 26.56980515 0.00000000
v 5.13682699 3.81317282 0.00000000
v 5.22044754 26.49401665 0.00000000
v 5.22044754 3.88896203 0.00000000
v 5.31109428 26.42678833 0.00000000
v 5.31109428 3.95619011 0.00000000
v 5.40789366 26.36876869 0.00000000
v 5.40789366 4.01420927 0.00000000
v 5.50991392 26.32051659 0.00000000
v 5.50991392 4.06246138 0.00000000
v 5.61617279 26.28249741 0.00000000
v 5.61617279 4.10048151 0.00000000
v 5.72564602 26.25507545 0.00000000
v 5.72564602 4.12790298 0.00000000
v 5.83728027 26.23851585 0.00000000
v 5.83728027 4.14446259 0.00000000
v 5.94999981 26.23297882 0.00000000
v 5.94999981 4.15000010 0.00000000
v 6.06271982 26.23851585 0.00000000
v 6.06271982 4.14446259 0.00000000
v 6.17435408 26.25507545 0.00000000
v 6.17435408 4.12790298 0.00000000
v 6.28382730 26.28249741 0.00000000
v 6.28382730 4.10048151 0.00000000
v 6.39008617 26.32051659 0.00000000
v 6.39008617 4.06246138 0.00000000
v 6.49210644 26.36876869 0.00000000
v 6.49210644 4.01420927 0.00000000
v 6.58890581 3.95619011 0.00000000
v 6.67955208 26.49401665 0.00000000
v 6.67955208 3.88896203 0.00000000
v 6.76317263 26.56980515 0.00000000
v 6.76317263 3.81317282 0.00000000
v 6.83896208 26.65342712 0.00000000
v 6.83896208 3.72955227 0.00000000
v 6.58890581 26.42678833 0.00000000
v -2.00000000 32.38298035 0.00000000
v 4.80000019 27.38297844 0.00000000
v 4.80553770 27.49569893 0.00000000
v 4.82209682 27.60733223 0.00000000
v 4.84951878 27.71680641 0.00000000
v 4.88753843 27.82306480 0.00000000
v 4.93579054 27.92508507 0.00000000
v 4.99381018 28.02188492 0.00000000
v 5.06103802 28.11253166 0.00000000
v 5.13682699 28.19615173 0.00000000
v 5.22044754 28.27194023 0.00000000
v 5.31109428 28.33916855 0.00000000
v 5.40789366 28.39718819 0.00000000
v 5.50991392 28.44544029 0.00000000
v 5.61617279 28.48345947 0.00000000
v 5.72564602 28.51088142 0.00000000
v 5.83728027 28.52744102 0.00000000
v 5.94999981 28.53297806 0.00000000
v 6.06271982 28.52744102 0.00000000
v 6.17435408 28.51088142 0.00000000
v 6.28382730 28.48345947 0.00000000
v -2.00000000 32.38298035 12.00000000
v 0.69999999 32.38298035 12.00000000
v 165.84909058 -16.12978745 0.00000000
v 93.00000000 -16.12978745 1.60000002
v 77.00000000 -16.12978745 1.60000002
v 5.94999981 1.85000002 0.00000000
v 6.06271982 1.85553753 0.00000000
v 6.17435408 1.87209690 0.00000000
v 6.28382730 1.89951861 0.00000000
v 6.39008617 1.93753850 0.00000000
v 6.49210644 1.98579049 0.00000000
v 6.58890581 2.04380989 0.00000000
v 6.67955208 2.11103797 0.00000000
v 6.76317263 2.18682718 0.00000000
v 6.83896208 2.27044773 0.00000000
v 6.90618992 2.36109424 0.00000000
v 6.96420956 2.45789385 0.00000000
v 7.01246166 2.55991411 0.00000000
v 7.05048132 2.66617250 0.00000000
v 7.07790327 2.77564621 0.00000000
v 7.09446239 2.88728023 0.00000000
v 7.09999990 3.00000000 0.00000000
v 7.09446239 3.11271977 0.00000000
v 7.07790327 3.22435379 0.00000000
v 7.05048132 3.33382750 0.00000000
v 7.01246166 3.44008589 0.00000000
v 70.00000000 -16.12978745 3.40000010
v 6.96420956 3.54210615 0.00000000
v 6.90618992 3.63890576 0.00000000
v 77.00000000 -16.12978745 3.40000010
v 70.00000000 -16.12978745 9.00000000
v 6.90618992 26.74407387 0.00000000
v 6.96420956 26.84087181 0.00000000
v 7.01246166 26.94289207 0.00000000
v 7.05048132 27.04915047 0.00000000
v 7.07790327 27.15862465 0.00000000
v 7.09446239 27.27025986 0.00000000
v 7.09999990 27.38297844 0.00000000
v 7.09446239 27.49569893 0.00000000
v 7.07790327 27.60733223 0.00000000
v 7.05048132 27.71680641 0.00000000
v 7.01246166 27.82306480 0.00000000
v 6.96420956 27.92508507 0.00000000
v 6.90618992 28.02188492 0.00000000
v 6.39008617 28.44544029 0.00000000
v 6.83896208 28.11253166 0.00000000
v 6.76317263 28.19615173 0.00000000
v 6.67955208 28.27194023 0.00000000
v 6.49210644 28.39718819 0.00000000
v 6.58890581 28.33916855 0.00000000
v 0.69999999 85.01931000 0.00000000
v 4.15090275 -16.12978745 12.00000000
v -0.34999999 -0.34999999 12.00000000
v -0.34999999 30.73297882 12.00000000
v 1.91220129 30.73297882 12.00000000
v 3.47860742 32.66245270 12.00000000
v 165.84909058 -16.12978745 12.00000000
v 0.69999999 85.01931000 12.00000000
v 0.71445310 85.31350708 12.00000000
v 0.71445310 85.31350708 0.00000000
v 0.76488590 85.65349579 12.00000000
v 0.76488590 85.65349579 0.00000000
v 0.84840071 85.98690796 12.00000000
v 0.84840071 85.98690796 0.00000000
v 0.96419322 86.31053162 12.00000000
v 0.96419322 86.31053162 0.00000000
v 1.11114836 86.62123871 12.00000000
v 1.11114836 86.62123871 0.00000000
v 1.28785086 86.91604614 12.00000000
v 1.28785086 86.91604614 0.00000000
v 1.49259889 87.19211578 12.00000000
v 1.49259889 87.19211578 0.00000000
v 1.72342074 87.44679260 12.00000000
v 1.72342074 87.44679260 0.00000000
v 1.97809339 87.67761230 12.00000000
v 1.97809339 87.67761230 0.00000000
v 2.25416422 87.88236237 12.00000000
v 2.25416422 87.88236237 0.00000000
v 2.54897451 88.05906677 12.00000000
v 2.54897451 88.05906677 0.00000000
v 2.85968494 88.20601654 12.00000000
v 2.85968494 88.20601654 0.00000000
v 3.18330359 88.32181549 12.00000000
v 3.18330359 88.32181549 0.00000000
v 3.51671338 88.40532684 12.00000000
v 3.51671338 88.40532684 0.00000000
v 3.85670352 88.45575714 12.00000000
v 3.85670352 88.45575714 0.00000000
v 4.15090275 88.47021484 12.00000000
v 4.15090275 88.47021484 0.00000000
v 5.20393515 34.68217087 12.00000000
v 6.97928858 36.65805817 12.00000000
v 8.80355453 38.58887863 12.00000000
v 10.67558956 40.47342300 12.00000000
v 12.59421921 42.31050491 12.00000000
v 14.55824184 44.09897614 12.00000000
v 16.56642532 45.83771515 12.00000000
v 18.61751175 47.52563095 12.00000000
v 20.71021461 49.16166687 12.00000000
v 22.84321976 50.74479294 12.00000000
v 25.01519394 52.27402496 12.00000000
v 27.22477341 53.74839783 12.00000000
v 29.47057343 55.16698456 12.00000000
v 41.19285202 61.39333344 12.00000000
v 43.62567520 62.45981979 12.00000000
v 46.08443451 63.46506119 12.00000000
v 31.75118446 56.52890396 12.00000000
v 34.06517792 57.83329773 12.00000000
v 36.41110611 59.07934952 12.00000000
v 38.78749466 60.26627731 12.00000000
v 48.56759262 64.40842438 12.00000000
v 51.07359314 65.28932953 12.00000000
v 53.60085678 66.10721588 12.00000000
v 56.14780807 66.86157227 12.00000000
v 58.71284866 67.55191803 12.00000000
v 61.29436874 68.17784119 12.00000000
v 165.84909058 88.47021484 12.00000000
v 63.89075089 68.73892975 12.00000000
v 66.50036621 69.23483276 12.00000000
v 69.12157440 69.66525269 12.00000000
v 100.00000000 -16.12978745 3.40000010
v 93.00000000 -16.12978745 3.40000010
v 166.14329529 -16.11533356 0.00000000
v 166.48329163 -16.06490135 0.00000000
v 166.81669617 -15.98138618 0.00000000
v 167.14031982 -15.86559391 0.00000000
v 167.45101929 -15.71863842 0.00000000
v 167.74583435 -15.54193592 0.00000000
v 168.02191162 -15.33718872 0.00000000
v 168.27658081 -15.10636616 0.00000000
v 168.50740051 -14.85169411 0.00000000
v 168.71214294 -14.57562351 0.00000000
v 168.88885498 -14.28081322 0.00000000
v 169.03581238 -13.97010231 0.00000000
v 169.15159607 -13.64648342 0.00000000
v 169.23510742 -13.31307411 0.00000000
v 169.28555298 -12.97308350 0.00000000
v 169.30000305 -12.67888451 0.00000000
v 169.30000305 -2.00000000 0.00000000
v 163.50788879 1.98579049 0.00000000
v 163.09381104 2.36109424 0.00000000
v 163.16104126 2.27044773 0.00000000
v 162.98753357 2.55991411 0.00000000
v 163.03579712 2.45789385 0.00000000
v 162.94952393 2.66617250 0.00000000
v 163.41108704 2.04380989 0.00000000
v 163.23683167 2.18682718 0.00000000
v 163.32044983 2.11103797 0.00000000
v 162.92210388 2.77564621 0.00000000
v 162.89999390 3.00000000 0.00000000
v 162.90553284 2.88728023 0.00000000
v 163.60990906 1.93753850 0.00000000
v 163.71617126 1.89951861 0.00000000
v 163.82565308 1.87209690 0.00000000
v 163.93728638 1.85553753 0.00000000
v 164.05000305 1.85000002 0.00000000
v 164.16271973 1.85553753 0.00000000
v 164.27435303 1.87209690 0.00000000
v 164.38383484 1.89951861 0.00000000
v 164.49008179 1.93753850 0.00000000
v 164.59210205 1.98579049 0.00000000
v 164.68890381 2.04380989 0.00000000
v 164.77955627 2.11103797 0.00000000
v 164.86317444 2.18682718 0.00000000
v 164.93896484 2.27044773 0.00000000
v 165.00619507 2.36109424 0.00000000
v 165.06420898 2.45789385 0.00000000
v 165.11245728 2.55991411 0.00000000
v 165.15048218 2.66617250 0.00000000
v 165.17790222 2.77564621 0.00000000
v 165.19445801 2.88728023 0.00000000
v 165.17790222 3.22435379 0.00000000
v 165.15048218 3.33382750 0.00000000
v 165.19445801 3.11271977 0.00000000
v 165.11245728 3.44008589 0.00000000
v 165.06420898 3.54210615 0.00000000
v 165.00619507 3.63890576 0.00000000
v 164.93896484 3.72955227 0.00000000
v 165.19999695 3.00000000 0.00000000
v 164.77955627 26.49401665 0.00000000
v 172.00000000 32.38298035 0.00000000
v 172.00000000 -2.00000000 0.00000000
v 166.14329529 -16.11533356 12.00000000
v 166.48329163 -16.06490135 12.00000000
v 166.81669617 -15.98138618 12.00000000
v 167.14031982 -15.86559391 12.00000000
v 167.45101929 -15.71863842 12.00000000
v 167.74583435 -15.54193592 12.00000000
v 168.02191162 -15.33718872 12.00000000
v 168.27658081 -15.10636616 12.00000000
v 168.50740051 -14.85169411 12.00000000
v 168.71214294 -14.57562351 12.00000000
v 168.88885498 -14.28081322 12.00000000
v 169.03581238 -13.97010231 12.00000000
v 169.15159607 -13.64648342 12.00000000
v 169.23510742 -13.31307411 12.00000000
v 169.28555298 -12.97308350 12.00000000
v 169.30000305 -12.67888451 12.00000000
v 169.30000305 -2.00000000 12.00000000
v 172.00000000 -2.00000000 12.00000000
v 162.90553284 27.27025986 0.00000000
v 162.90553284 3.11271977 0.00000000
v 162.92210388 27.15862465 0.00000000
v 162.92210388 3.22435379 0.00000000
v 162.94952393 27.04915047 0.00000000
v 162.94952393 3.33382750 0.00000000
v 162.98753357 26.94289207 0.00000000
v 162.98753357 3.44008589 0.00000000
v 163.03579712 26.84087181 0.00000000
v 163.03579712 3.54210615 0.00000000
v 163.09381104 26.74407387 0.00000000
v 163.09381104 3.63890576 0.00000000
v 163.16104126 26.65342712 0.00000000
v 163.16104126 3.72955227 0.00000000
v 163.23683167 26.56980515 0.00000000
v 163.23683167 3.81317282 0.00000000
v 163.32044983 26.49401665 0.00000000
v 163.32044983 3.88896203 0.00000000
v 163.41108704 26.42678833 0.00000000
v 163.41108704 3.95619011 0.00000000
v 163.50788879 26.36876869 0.00000000
v 163.50788879 4.01420927 0.00000000
v 163.60990906 26.32051659 0.00000000
v 163.60990906 4.06246138 0.00000000
v 163.71617126 26.28249741 0.00000000
v 163.71617126 4.10048151 0.00000000
v 163.82565308 26.25507545 0.00000000
v 163.82565308 4.12790298 0.00000000
v 163.93728638 26.23851585 0.00000000
v 163.93728638 4.14446259 0.00000000
v 164.05000305 26.23297882 0.00000000
v 164.05000305 4.15000010 0.00000000
v 164.16271973 26.23851585 0.00000000
v 164.16271973 4.14446259 0.00000000
v 164.27435303 26.25507545 0.00000000
v 164.27435303 4.12790298 0.00000000
v 164.38383484 26.28249741 0.00000000
v 164.38383484 4.10048151 0.00000000
v 164.49008179 26.32051659 0.00000000
v 164.49008179 4.06246138 0.00000000
v 164.86317444 3.81317282 0.00000000
v 164.68890381 3.95619011 0.00000000
v 164.77955627 3.88896203 0.00000000
v 164.59210205 26.36876869 0.00000000
v 164.59210205 4.01420927 0.00000000
v 164.68890381 26.42678833 0.00000000
v 162.89999390 27.38297844 0.00000000
v 164.86317444 26.56980515 0.00000000
v 164.93896484 26.65342712 0.00000000
v 165.00619507 26.74407387 0.00000000
v 165.06420898 26.84087181 0.00000000
v 165.11245728 26.94289207 0.00000000
v 165.15048218 27.04915047 0.00000000
v 165.17790222 27.15862465 0.00000000
v 165.19445801 27.27025986 0.00000000
v 165.19999695 27.38297844 0.00000000
v 165.19445801 27.49569893 0.00000000
v 169.30000305 32.38298035 0.00000000
v 165.17790222 27.60733223 0.00000000
v 165.15048218 27.71680641 0.00000000
v 165.11245728 27.82306480 0.00000000
v 165.06420898 27.92508507 0.00000000
v 164.86317444 28.19615173 0.00000000
v 164.77955627 28.27194023 0.00000000
v 164.93896484 28.11253166 0.00000000
v 165.00619507 28.02188492 0.00000000
v 163.50788879 28.39718819 0.00000000
v 163.41108704 28.33916855 0.00000000
v 163.60990906 28.44544029 0.00000000
v 163.71617126 28.48345947 0.00000000
v 163.82565308 28.51088142 0.00000000
v 163.93728638 28.52744102 0.00000000
v 164.05000305 28.53297806 0.00000000
v 164.16271973 28.52744102 0.00000000
v 164.27435303 28.51088142 0.00000000
v 164.38383484 28.48345947 0.00000000
v 164.68890381 28.33916855 0.00000000
v 164.59210205 28.39718819 0.00000000
v 164.49008179 28.44544029 0.00000000
v 172.00000000 32.38298035 12.00000000
v 100.00000000 -16.12978745 9.00000000
v 170.35000610 -0.34999999 12.00000000
v 169.30000305 32.38298035 12.00000000
v 170.35000610 30.73297882 12.00000000
v 166.52139282 32.66245270 12.00000000
v 168.08779907 30.73297882 12.00000000
v 162.90553284 27.49569893 0.00000000
v 162.92210388 27.60733223 0.00000000
v 162.94952393 27.71680641 0.00000000
v 162.98753357 27.82306480 0.00000000
v 163.03579712 27.92508507 0.00000000
v 163.09381104 28.02188492 0.00000000
v 163.16104126 28.11253166 0.00000000
v 163.23683167 28.19615173 0.00000000
v 163.32044983 28.27194023 0.00000000
v 165.84909058 88.47021484 0.00000000
v 169.30000305 85.01931000 0.00000000
v 169.23510742 85.65349579 0.00000000
v 169.28555298 85.31350708 0.00000000
v 169.15159607 85.98690796 0.00000000
v 169.03581238 86.31053162 0.00000000
v 168.88885498 86.62123871 0.00000000
v 168.02191162 87.67761230 0.00000000
v 168.27658081 87.44679260 0.00000000
v 168.50740051 87.19211578 0.00000000
v 168.71214294 86.91604614 0.00000000
v 166.14329529 88.45575714 0.00000000
v 166.81669617 88.32181549 0.00000000
v 167.14031982 88.20601654 0.00000000
v 166.48329163 88.40532684 0.00000000
v 167.45101929 88.05906677 0.00000000
v 167.74583435 87.88236237 0.00000000
v 166.14329529 88.45575714 12.00000000
v 166.48329163 88.40532684 12.00000000
v 169.30000305 85.01931000 12.00000000
v 169.28555298 85.31350708 12.00000000
v 169.23510742 85.65349579 12.00000000
v 169.15159607 85.98690796 12.00000000
v 169.03581238 86.31053162 12.00000000
v 168.88885498 86.62123871 12.00000000
v 166.81669617 88.32181549 12.00000000
v 167.14031982 88.20601654 12.00000000
v 167.74583435 87.88236237 12.00000000
v 167.45101929 88.05906677 12.00000000
v 168.27658081 87.44679260 12.00000000
v 168.50740051 87.19211578 12.00000000
v 168.71214294 86.91604614 12.00000000
v 168.02191162 87.67761230 12.00000000
v 71.75274658 70.02991486 12.00000000
v 74.39221191 70.32858276 12.00000000
v 77.03833771 70.56107330 12.00000000
v 106.10925293 68.73892975 12.00000000
v 108.70562744 68.17784119 12.00000000
v 79.68945312 70.72724152 12.00000000
v 82.34389496 70.82698822 12.00000000
v 85.00000000 70.86023712 12.00000000
v 87.65610504 70.82698822 12.00000000
v 90.31054688 70.72724152 12.00000000
v 92.96166229 70.56107330 12.00000000
v 95.60778809 70.32858276 12.00000000
v 98.24725342 70.02991486 12.00000000
v 100.87842560 69.66525269 12.00000000
v 103.49963379 69.23483276 12.00000000
v 149.28977966 49.16166687 12.00000000
v 151.38249207 47.52563095 12.00000000
v 157.40577698 42.31050491 12.00000000
v 159.32441711 40.47342300 12.00000000
v 155.44175720 44.09897614 12.00000000
v 153.43357849 45.83771515 12.00000000
v 164.79606628 34.68217087 12.00000000
v 161.19644165 38.58887863 12.00000000
v 163.02070618 36.65805817 12.00000000
v 111.28714752 67.55191803 12.00000000
v 113.85218811 66.86157227 12.00000000
v 116.39913940 66.10721588 12.00000000
v 118.92640686 65.28932953 12.00000000
v 121.43240356 64.40842438 12.00000000
v 123.91556549 63.46506119 12.00000000
v 126.37432098 62.45981979 12.00000000
v 133.58889771 59.07934952 12.00000000
v 135.93481445 57.83329773 12.00000000
v 138.24880981 56.52890396 12.00000000
v 140.52943420 55.16698456 12.00000000
v 142.77522278 53.74839783 12.00000000
v 128.80714417 61.39333344 12.00000000
v 131.21250916 60.26627731 12.00000000
v 144.98480225 52.27402496 12.00000000
v 147.15678406 50.74479294 12.00000000
v -0.34999999 -0.34999999 10.00000000
v 2.70000005 -0.34999999 10.07999992
v 2.70000005 -0.34999999 10.00000000
v 1.91220129 30.73297882 10.00000000
v -0.34999999 30.73297882 10.00000000
v 2.70000005 31.70337677 10.00000000
v 2.70000005 31.70337677 10.07999992
v 3.47860742 32.66245270 10.07999992
v 5.20393515 34.68217087 10.07999992
v 6.97928858 36.65805817 10.07999992
v 167.30000305 -0.34999999 10.07999992
v 8.80355453 38.58887863 10.07999992
v 10.67558956 40.47342300 10.07999992
v 12.59421921 42.31050491 10.07999992
v 14.55824184 44.09897614 10.07999992
v 16.56642532 45.83771515 10.07999992
v 18.61751175 47.52563095 10.07999992
v 20.71021461 49.16166687 10.07999992
v 22.84321976 50.74479294 10.07999992
v 25.01519394 52.27402496 10.07999992
v 27.22477341 53.74839783 10.07999992
v 29.47057343 55.16698456 10.07999992
v 31.75118446 56.52890396 10.07999992
v 34.06517792 57.83329773 10.07999992
v 36.41110611 59.07934952 10.07999992
v 38.78749466 60.26627731 10.07999992
v 41.19285202 61.39333344 10.07999992
v 43.62567520 62.45981979 10.07999992
v 46.08443451 63.46506119 10.07999992
v 48.56759262 64.40842438 10.07999992
v 51.07359314 65.28932953 10.07999992
v 53.60085678 66.10721588 10.07999992
v 56.14780807 66.86157227 10.07999992
v 58.71284866 67.55191803 10.07999992
v 61.29436874 68.17784119 10.07999992
v 63.89075089 68.73892975 10.07999992
v 66.50036621 69.23483276 10.07999992
v 69.12157440 69.66525269 10.07999992
v 71.75274658 70.02991486 10.07999992
v 74.39221191 70.32858276 10.07999992
v 77.03833771 70.56107330 10.07999992
v 79.68945312 70.72724152 10.07999992
v 82.34389496 70.82698822 10.07999992
v 85.00000000 70.86023712 10.07999992
v 167.30000305 -0.34999999 10.00000000
v 170.35000610 -0.34999999 10.00000000
v 170.35000610 30.73297882 10.00000000
v 167.30000305 31.70337677 10.00000000
v 168.08779907 30.73297882 10.00000000
v 167.30000305 31.70337677 10.07999992
v 164.79606628 34.68217087 10.07999992
v 166.52139282 32.66245270 10.07999992
v 163.02070618 36.65805817 10.07999992
v 126.37432098 62.45981979 10.07999992
v 128.80714417 61.39333344 10.07999992
v 87.65610504 70.82698822 10.07999992
v 90.31054688 70.72724152 10.07999992
v 92.96166229 70.56107330 10.07999992
v 95.60778809 70.32858276 10.07999992
v 98.24725342 70.02991486 10.07999992
v 100.87842560 69.66525269 10.07999992
v 103.49963379 69.23483276 10.07999992
v 106.10925293 68.73892975 10.07999992
v 108.70562744 68.17784119 10.07999992
v 111.28714752 67.55191803 10.07999992
v 113.85218811 66.86157227 10.07999992
v 116.39913940 66.10721588 10.07999992
v 118.92640686 65.28932953 10.07999992
v 121.43240356 64.40842438 10.07999992
v 123.91556549 63.46506119 10.07999992
v 149.28977966 49.16166687 10.07999992
v 131.21250916 60.26627731 10.07999992
v 133.58889771 59.07934952 10.07999992
v 135.93481445 57.83329773 10.07999992
v 138.24880981 56.52890396 10.07999992
v 140.52943420 55.16698456 10.07999992
v 142.77522278 53.74839783 10.07999992
v 144.98480225 52.27402496 10.07999992
v 147.15678406 50.74479294 10.07999992
v 159.32441711 40.47342300 10.07999992
v 161.19644165 38.58887863 10.07999992
v 157.40577698 42.31050491 10.07999992
v 153.43357849 45.83771515 10.07999992
v 155.44175720 44.09897614 10.07999992
v 151.38249207 47.52563095 10.07999992
v 3.36664462 -13.87699127 6.40000010
v 3.36664462 -13.87699127 10.07999992
v 3.49290490 -13.95266914 6.40000010
v 3.13933992 -13.69044781 6.40000010
v 3.13933992 -13.69044781 10.07999992
v 3.24840999 -13.78930283 6.40000010
v 3.24840999 -13.78930283 10.07999992
v 2.76458955 -13.06521416 6.40000010
v 2.72882199 -12.92242241 6.40000010
v 2.72882199 -12.92242241 10.07999992
v 3.04048443 -13.58137703 6.40000010
v 3.04048443 -13.58137703 10.07999992
v 2.95279551 -13.46314240 6.40000010
v 2.95279551 -13.46314240 10.07999992
v 2.87711811 -13.33688259 6.40000010
v 2.87711811 -13.33688259 10.07999992
v 2.81418061 -13.20381260 6.40000010
v 2.81418061 -13.20381260 10.07999992
v 2.76458955 -13.06521416 10.07999992
v 2.70722294 -12.77681255 6.40000010
v 2.70722294 -12.77681255 10.07999992
v 2.70000005 -12.62978745 6.40000010
v 2.70000005 -12.62978745 10.07999992
v 3.90736461 -14.10096550 6.40000010
v 3.90736461 -14.10096550 10.07999992
v 4.05297422 -14.12256432 6.40000010
v 4.05297422 -14.12256432 10.07999992
v 4.19999981 -14.12978745 6.40000010
v 3.62597489 -14.01560688 6.40000010
v 3.49290490 -13.95266914 10.07999992
v 3.62597489 -14.01560688 10.07999992
v 3.76457310 -14.06519794 6.40000010
v 3.76457310 -14.06519794 10.07999992
v 4.19999981 -14.12978745 10.07999992
v 70.00000000 -14.12978745 6.40000010
v 4.69999981 -12.12978745 6.40000010
v 2.72882199 85.26284790 6.40000010
v 2.70722294 85.11724091 6.40000010
v 2.95279551 85.80356598 6.40000010
v 3.04048443 85.92180634 6.40000010
v 2.87711811 85.67730713 6.40000010
v 2.81418061 85.54423523 6.40000010
v 2.76458955 85.40563965 6.40000010
v 3.13933992 86.03087616 6.40000010
v 3.36664462 86.21741486 6.40000010
v 3.24840999 86.12973022 6.40000010
v 2.70000005 84.97021484 6.40000010
v 3.76457310 86.40562439 6.40000010
v 3.90736461 86.44139099 6.40000010
v 4.05297422 86.46298981 6.40000010
v 3.49290490 86.29309845 6.40000010
v 3.62597489 86.35603333 6.40000010
v 4.69999981 84.47021484 6.40000010
v 2.70000005 84.97021484 10.07999992
v 70.00000000 -13.74978733 6.40000010
v 100.00000000 -13.74978733 6.40000010
v 70.00000000 -14.12978745 9.00000000
v 100.00000000 -14.12978745 9.00000000
v 4.19999981 86.47021484 6.40000010
v 3.36664462 86.21741486 10.07999992
v 4.19999981 86.47021484 10.07999992
v 2.70722294 85.11724091 10.07999992
v 2.72882199 85.26284790 10.07999992
v 2.76458955 85.40563965 10.07999992
v 2.81418061 85.54423523 10.07999992
v 2.87711811 85.67730713 10.07999992
v 2.95279551 85.80356598 10.07999992
v 3.04048443 85.92180634 10.07999992
v 3.13933992 86.03087616 10.07999992
v 3.24840999 86.12973022 10.07999992
v 3.49290490 86.29309845 10.07999992
v 3.62597489 86.35603333 10.07999992
v 3.76457310 86.40562439 10.07999992
v 3.90736461 86.44139099 10.07999992
v 4.05297422 86.46298981 10.07999992
v 165.30000305 84.47021484 6.40000010
v 165.80000305 86.47021484 10.07999992
v 165.30000305 -12.12978745 6.40000010
v 100.00000000 -14.12978745 6.40000010
v 165.80000305 -14.12978745 6.40000010
v 165.80000305 -14.12978745 10.07999992
v 165.94702148 -14.12256432 6.40000010
v 165.94702148 -14.12256432 10.07999992
v 166.09263611 -14.10096550 6.40000010
v 166.09263611 -14.10096550 10.07999992
v 166.23542786 -14.06519794 6.40000010
v 166.23542786 -14.06519794 10.07999992
v 166.37402344 -14.01560688 6.40000010
v 166.37402344 -14.01560688 10.07999992
v 166.50709534 -13.95266914 6.40000010
v 166.50709534 -13.95266914 10.07999992
v 166.63336182 -13.87699127 6.40000010
v 166.63336182 -13.87699127 10.07999992
v 166.75158691 -13.78930283 6.40000010
v 166.75158691 -13.78930283 10.07999992
v 166.86065674 -13.69044781 6.40000010
v 166.86065674 -13.69044781 10.07999992
v 166.95951843 -13.58137703 6.40000010
v 166.95951843 -13.58137703 10.07999992
v 167.04721069 -13.46314240 6.40000010
v 167.04721069 -13.46314240 10.07999992
v 167.12287903 -13.33688259 6.40000010
v 167.12287903 -13.33688259 10.07999992
v 167.18582153 -13.20381260 6.40000010
v 167.18582153 -13.20381260 10.07999992
v 167.23541260 -13.06521416 6.40000010
v 167.23541260 -13.06521416 10.07999992
v 167.27117920 -12.92242241 6.40000010
v 167.27117920 -12.92242241 10.07999992
v 167.29277039 -12.77681255 6.40000010
v 167.29277039 -12.77681255 10.07999992
v 167.30000305 -12.62978745 6.40000010
v 167.30000305 -12.62978745 10.07999992
v 165.80000305 86.47021484 6.40000010
v 165.94702148 86.46298981 6.40000010
v 166.09263611 86.44139099 6.40000010
v 166.23542786 86.40562439 6.40000010
v 166.37402344 86.35603333 6.40000010
v 166.50709534 86.29309845 6.40000010
v 166.63336182 86.21741486 6.40000010
v 166.75158691 86.12973022 6.40000010
v 166.86065674 86.03087616 6.40000010
v 166.95951843 85.92180634 6.40000010
v 167.04721069 85.80356598 6.40000010
v 167.12287903 85.67730713 6.40000010
v 167.18582153 85.54423523 6.40000010
v 167.23541260 85.40563965 6.40000010
v 167.27117920 85.26284790 6.40000010
v 167.29277039 85.11724091 6.40000010
v 167.30000305 84.97021484 6.40000010
v 166.50709534 86.29309845 10.07999992
v 167.30000305 84.97021484 10.07999992
v 166.23542786 86.40562439 10.07999992
v 166.37402344 86.35603333 10.07999992
v 165.94702148 86.46298981 10.07999992
v 166.09263611 86.44139099 10.07999992
v 167.29277039 85.11724091 10.07999992
v 167.23541260 85.40563965 10.07999992
v 167.18582153 85.54423523 10.07999992
v 167.12287903 85.67730713 10.07999992
v 167.04721069 85.80356598 10.07999992
v 166.95951843 85.92180634 10.07999992
v 167.27117920 85.26284790 10.07999992
v 166.75158691 86.12973022 10.07999992
v 166.86065674 86.03087616 10.07999992
v 166.63336182 86.21741486 10.07999992
v 4.69999981 -12.12978745 1.60000002
v 4.84951878 2.66617250 1.60000002
v 4.82209682 2.77564621 1.60000002
v 4.80553770 2.88728023 1.60000002
v 4.80000019 3.00000000 1.60000002
v 5.31109428 2.04380989 1.60000002
v 5.22044754 2.11103797 1.60000002
v 5.61617279 1.89951861 1.60000002
v 5.50991392 1.93753850 1.60000002
v 5.40789366 1.98579049 1.60000002
v 5.72564602 1.87209690 1.60000002
v 5.83728027 1.85553753 1.60000002
v 5.13682699 2.18682718 1.60000002
v 5.06103802 2.27044773 1.60000002
v 4.99381018 2.36109424 1.60000002
v 4.93579054 2.45789385 1.60000002
v 4.88753843 2.55991411 1.60000002
v 5.94999981 1.85000002 1.60000002
v 6.06271982 1.85553753 1.60000002
v 6.17435408 1.87209690 1.60000002
v 6.28382730 1.89951861 1.60000002
v 6.39008617 1.93753850 1.60000002
v 6.49210644 1.98579049 1.60000002
v 4.80000019 27.38297844 1.60000002
v 4.80553770 3.11271977 1.60000002
v 4.82209682 3.22435379 1.60000002
v 4.80553770 27.27025986 1.60000002
v 4.84951878 3.33382750 1.60000002
v 4.82209682 27.15862465 1.60000002
v 4.88753843 3.44008589 1.60000002
v 4.84951878 27.04915047 1.60000002
v 4.93579054 3.54210615 1.60000002
v 4.88753843 26.94289207 1.60000002
v 4.99381018 3.63890576 1.60000002
v 4.93579054 26.84087181 1.60000002
v 5.06103802 3.72955227 1.60000002
v 4.99381018 26.74407387 1.60000002
v 5.13682699 3.81317282 1.60000002
v 5.06103802 26.65342712 1.60000002
v 5.22044754 3.88896203 1.60000002
v 5.13682699 26.56980515 1.60000002
v 5.31109428 3.95619011 1.60000002
v 5.22044754 26.49401665 1.60000002
v 5.40789366 4.01420927 1.60000002
v 5.31109428 26.42678833 1.60000002
v 5.50991392 4.06246138 1.60000002
v 5.40789366 26.36876869 1.60000002
v 5.61617279 4.10048151 1.60000002
v 5.50991392 26.32051659 1.60000002
v 5.72564602 4.12790298 1.60000002
v 5.61617279 26.28249741 1.60000002
v 5.83728027 4.14446259 1.60000002
v 5.72564602 26.25507545 1.60000002
v 5.94999981 4.15000010 1.60000002
v 5.83728027 26.23851585 1.60000002
v 6.06271982 4.14446259 1.60000002
v 5.94999981 26.23297882 1.60000002
v 6.17435408 4.12790298 1.60000002
v 6.06271982 26.23851585 1.60000002
v 6.28382730 4.10048151 1.60000002
v 6.17435408 26.25507545 1.60000002
v 6.39008617 4.06246138 1.60000002
v 6.28382730 26.28249741 1.60000002
v 6.49210644 4.01420927 1.60000002
v 6.39008617 26.32051659 1.60000002
v 6.58890581 3.95619011 1.60000002
v 6.49210644 26.36876869 1.60000002
v 6.67955208 3.88896203 1.60000002
v 6.58890581 26.42678833 1.60000002
v 6.76317263 3.81317282 1.60000002
v 6.83896208 3.72955227 1.60000002
v 6.76317263 26.56980515 1.60000002
v 6.67955208 26.49401665 1.60000002
v 7.09999990 3.00000000 1.60000002
v 7.07790327 27.15862465 1.60000002
v 7.09446239 3.11271977 1.60000002
v 7.07790327 3.22435379 1.60000002
v 7.05048132 27.04915047 1.60000002
v 7.05048132 3.33382750 1.60000002
v 7.01246166 26.94289207 1.60000002
v 7.01246166 3.44008589 1.60000002
v 6.96420956 3.54210615 1.60000002
v 6.96420956 26.84087181 1.60000002
v 6.90618992 26.74407387 1.60000002
v 6.90618992 3.63890576 1.60000002
v 6.83896208 26.65342712 1.60000002
v 4.69999981 84.47021484 1.60000002
v 165.30000305 -12.12978745 1.60000002
v 165.30000305 84.47021484 1.60000002
v 6.58890581 2.04380989 1.60000002
v 6.67955208 2.11103797 1.60000002
v 6.76317263 2.18682718 1.60000002
v 6.83896208 2.27044773 1.60000002
v 6.90618992 2.36109424 1.60000002
v 6.96420956 2.45789385 1.60000002
v 7.01246166 2.55991411 1.60000002
v 7.05048132 2.66617250 1.60000002
v 7.07790327 2.77564621 1.60000002
v 7.09446239 2.88728023 1.60000002
v 4.80553770 27.49569893 1.60000002
v 4.82209682 27.60733223 1.60000002
v 4.84951878 27.71680641 1.60000002
v 4.88753843 27.82306480 1.60000002
v 4.93579054 27.92508507 1.60000002
v 4.99381018 28.02188492 1.60000002
v 5.06103802 28.11253166 1.60000002
v 5.13682699 28.19615173 1.60000002
v 5.22044754 28.27194023 1.60000002
v 5.31109428 28.33916855 1.60000002
v 5.40789366 28.39718819 1.60000002
v 5.50991392 28.44544029 1.60000002
v 5.61617279 28.48345947 1.60000002
v 5.72564602 28.51088142 1.60000002
v 5.83728027 28.52744102 1.60000002
v 5.94999981 28.53297806 1.60000002
v 6.06271982 28.52744102 1.60000002
v 7.09446239 27.27025986 1.60000002
v 7.09999990 27.38297844 1.60000002
v 7.09446239 27.49569893 1.60000002
v 7.07790327 27.60733223 1.60000002
v 7.05048132 27.71680641 1.60000002
v 7.01246166 27.82306480 1.60000002
v 6.96420956 27.92508507 1.60000002
v 6.28382730 28.48345947 1.60000002
v 6.17435408 28.51088142 1.60000002
v 6.39008617 28.44544029 1.60000002
v 6.58890581 28.33916855 1.60000002
v 6.49210644 28.39718819 1.60000002
v 6.76317263 28.19615173 1.60000002
v 6.83896208 28.11253166 1.60000002
v 6.67955208 28.27194023 1.60000002
v 6.90618992 28.02188492 1.60000002
v 162.94952393 2.66617250 1.60000002
v 162.92210388 2.77564621 1.60000002
v 162.90553284 2.88728023 1.60000002
v 162.89999390 3.00000000 1.60000002
v 162.90553284 3.11271977 1.60000002
v 162.98753357 26.94289207 1.60000002
v 162.94952393 27.04915047 1.60000002
v 162.92210388 27.15862465 1.60000002
v 162.90553284 27.27025986 1.60000002
v 162.89999390 27.38297844 1.60000002
v 163.09381104 2.36109424 1.60000002
v 163.03579712 2.45789385 1.60000002
v 162.98753357 2.55991411 1.60000002
v 163.41108704 2.04380989 1.60000002
v 163.32044983 2.11103797 1.60000002
v 163.50788879 1.98579049 1.60000002
v 163.60990906 1.93753850 1.60000002
v 163.82565308 1.87209690 1.60000002
v 163.71617126 1.89951861 1.60000002
v 163.93728638 1.85553753 1.60000002
v 164.05000305 1.85000002 1.60000002
v 164.16271973 1.85553753 1.60000002
v 163.23683167 2.18682718 1.60000002
v 163.16104126 2.27044773 1.60000002
v 164.27435303 1.87209690 1.60000002
v 164.38383484 1.89951861 1.60000002
v 164.49008179 1.93753850 1.60000002
v 164.59210205 1.98579049 1.60000002
v 164.68890381 2.04380989 1.60000002
v 164.77955627 2.11103797 1.60000002
v 164.86317444 2.18682718 1.60000002
v 164.93896484 2.27044773 1.60000002
v 165.00619507 2.36109424 1.60000002
v 165.06420898 2.45789385 1.60000002
v 165.11245728 2.55991411 1.60000002
v 165.15048218 2.66617250 1.60000002
v 165.17790222 2.77564621 1.60000002
v 165.19445801 2.88728023 1.60000002
v 165.19999695 3.00000000 1.60000002
v 162.92210388 3.22435379 1.60000002
v 162.94952393 3.33382750 1.60000002
v 162.98753357 3.44008589 1.60000002
v 163.03579712 3.54210615 1.60000002
v 163.09381104 3.63890576 1.60000002
v 163.03579712 26.84087181 1.60000002
v 163.16104126 3.72955227 1.60000002
v 163.09381104 26.74407387 1.60000002
v 163.23683167 3.81317282 1.60000002
v 163.16104126 26.65342712 1.60000002
v 163.32044983 3.88896203 1.60000002
v 163.23683167 26.56980515 1.60000002
v 163.41108704 3.95619011 1.60000002
v 163.32044983 26.49401665 1.60000002
v 163.50788879 4.01420927 1.60000002
v 163.41108704 26.42678833 1.60000002
v 163.60990906 4.06246138 1.60000002
v 163.50788879 26.36876869 1.60000002
v 163.71617126 4.10048151 1.60000002
v 163.60990906 26.32051659 1.60000002
v 163.82565308 4.12790298 1.60000002
v 163.71617126 26.28249741 1.60000002
v 163.93728638 4.14446259 1.60000002
v 163.82565308 26.25507545 1.60000002
v 164.05000305 4.15000010 1.60000002
v 163.93728638 26.23851585 1.60000002
v 164.16271973 4.14446259 1.60000002
v 164.05000305 26.23297882 1.60000002
v 164.27435303 4.12790298 1.60000002
v 164.16271973 26.23851585 1.60000002
v 164.38383484 4.10048151 1.60000002
v 164.27435303 26.25507545 1.60000002
v 164.49008179 4.06246138 1.60000002
v 164.38383484 26.28249741 1.60000002
v 165.17790222 3.22435379 1.60000002
v 165.15048218 27.04915047 1.60000002
v 165.15048218 3.33382750 1.60000002
v 165.11245728 26.94289207 1.60000002
v 165.11245728 3.44008589 1.60000002
v 165.19445801 3.11271977 1.60000002
v 165.17790222 27.15862465 1.60000002
v 164.59210205 4.01420927 1.60000002
v 164.68890381 3.95619011 1.60000002
v 164.59210205 26.36876869 1.60000002
v 164.86317444 3.81317282 1.60000002
v 164.77955627 26.49401665 1.60000002
v 164.77955627 3.88896203 1.60000002
v 164.68890381 26.42678833 1.60000002
v 164.49008179 26.32051659 1.60000002
v 165.00619507 3.63890576 1.60000002
v 164.93896484 26.65342712 1.60000002
v 164.93896484 3.72955227 1.60000002
v 165.06420898 3.54210615 1.60000002
v 165.00619507 26.74407387 1.60000002
v 164.86317444 26.56980515 1.60000002
v 165.06420898 26.84087181 1.60000002
v 165.19445801 27.27025986 1.60000002
v 165.19999695 27.38297844 1.60000002
v 162.90553284 27.49569893 1.60000002
v 162.92210388 27.60733223 1.60000002
v 162.94952393 27.71680641 1.60000002
v 162.98753357 27.82306480 1.60000002
v 163.03579712 27.92508507 1.60000002
v 163.09381104 28.02188492 1.60000002
v 165.15048218 27.71680641 1.60000002
v 165.11245728 27.82306480 1.60000002
v 165.06420898 27.92508507 1.60000002
v 163.16104126 28.11253166 1.60000002
v 163.23683167 28.19615173 1.60000002
v 163.32044983 28.27194023 1.60000002
v 163.41108704 28.33916855 1.60000002
v 163.50788879 28.39718819 1.60000002
v 163.60990906 28.44544029 1.60000002
v 163.71617126 28.48345947 1.60000002
v 163.82565308 28.51088142 1.60000002
v 163.93728638 28.52744102 1.60000002
v 164.05000305 28.53297806 1.60000002
v 164.16271973 28.52744102 1.60000002
v 164.27435303 28.51088142 1.60000002
v 164.38383484 28.48345947 1.60000002
v 164.59210205 28.39718819 1.60000002
v 164.68890381 28.33916855 1.60000002
v 164.49008179 28.44544029 1.60000002
v 164.77955627 28.27194023 1.60000002
v 164.86317444 28.19615173 1.60000002
v 165.00619507 28.02188492 1.60000002
v 164.93896484 28.11253166 1.60000002
v 165.19445801 27.49569893 1.60000002
v 165.17790222 27.60733223 1.60000002
v 70.00000000 -13.74978733 3.40000010
v 77.00000000 -13.74978733 3.40000010
v 93.00000000 -13.74978733 3.40000010
v 100.00000000 -13.74978733 3.40000010
v 77.00000000 -13.74978733 1.60000002
v 93.00000000 -13.74978733 1.60000002
f 1 2 3
f 1 4 5
f 1 5 6
f 1 6 7
f 1 8 9
f 1 10 11
f 1 11 8
f 1 12 10
f 1 13 14
f 1 14 12
f 1 9 15
f 1 15 4
f 1 16 13
f 1 3 17
f 1 17 16
f 18 19 1
f 20 21 22
f 23 24 25
f 26 27 24
f 20 28 26
f 29 30 31
f 21 29 32
f 30 33 34
f 33 35 36
f 23 37 38
f 38 39 40
f 40 41 42
f 42 43 44
f 45 44 46
f 45 47 48
f 35 49 50
f 49 51 52
f 48 53 1
f 18 1 54
f 1 19 2
f 2 55 56
f 56 57 58
f 58 59 60
f 60 61 62
f 62 63 64
f 64 65 66
f 66 67 68
f 68 69 70
f 70 71 72
f 72 73 74
f 74 75 76
f 76 77 78
f 78 79 80
f 80 81 82
f 82 83 84
f 84 85 86
f 86 87 88
f 88 89 90
f 90 91 92
f 92 93 94
f 94 95 96
f 97 98 99
f 99 100 101
f 101 102 103
f 96 104 97
f 18 105 19
f 19 106 2
f 68 67 69
f 70 69 71
f 72 71 73
f 76 75 77
f 74 73 75
f 78 77 79
f 80 79 81
f 82 81 83
f 84 83 85
f 86 85 87
f 88 87 89
f 60 59 61
f 62 61 63
f 64 63 65
f 56 55 57
f 58 57 59
f 66 65 67
f 2 106 55
f 90 89 91
f 92 91 93
f 94 93 95
f 96 95 104
f 97 104 98
f 99 98 100
f 101 100 102
f 19 107 106
f 19 108 107
f 19 109 108
f 19 110 109
f 19 111 110
f 19 112 111
f 19 113 112
f 19 114 113
f 19 115 114
f 19 116 115
f 19 117 116
f 19 118 117
f 19 119 118
f 19 120 119
f 19 121 120
f 19 122 121
f 19 123 122
f 19 124 123
f 19 125 124
f 18 126 105
f 105 127 19
f 26 24 128
f 23 38 128
f 23 128 24
f 38 40 128
f 40 42 128
f 21 128 29
f 29 128 30
f 20 26 128
f 20 128 21
f 30 128 33
f 33 128 35
f 35 128 49
f 45 48 128
f 42 44 128
f 45 128 44
f 48 1 128
f 49 128 51
f 51 129 130
f 1 7 128
f 128 7 131
f 128 131 132
f 128 132 133
f 128 133 134
f 128 134 135
f 128 135 136
f 128 136 137
f 128 137 138
f 128 138 139
f 128 139 140
f 128 140 141
f 128 141 142
f 128 142 143
f 128 143 144
f 128 144 145
f 128 145 146
f 128 146 147
f 128 147 148
f 128 148 149
f 128 149 150
f 128 150 151
f 51 130 152
f 128 151 153
f 128 153 154
f 128 154 103
f 128 103 102
f 155 152 130
f 51 152 156
f 19 128 125
f 128 102 157
f 128 157 158
f 128 158 159
f 128 159 160
f 128 160 161
f 128 161 162
f 128 162 163
f 128 163 164
f 128 164 165
f 128 165 166
f 128 166 167
f 128 167 168
f 128 168 169
f 128 170 125
f 128 171 172
f 128 172 173
f 128 174 170
f 128 175 174
f 128 173 175
f 128 169 171
f 19 176 128
f 45 46 47
f 26 28 27
f 20 22 28
f 24 27 25
f 30 34 31
f 21 32 22
f 29 31 32
f 33 36 34
f 35 50 36
f 23 25 37
f 38 37 39
f 40 39 41
f 42 41 43
f 44 43 46
f 49 52 50
f 51 177 52
f 48 47 53
f 1 53 54
f 18 54 126
f 51 156 177
f 54 53 178
f 54 178 179
f 105 126 127
f 54 179 126
f 126 179 127
f 127 179 180
f 127 180 181
f 28 182 27
f 25 182 37
f 25 27 182
f 37 182 39
f 39 182 41
f 32 31 182
f 31 34 182
f 22 182 28
f 22 32 182
f 34 36 182
f 36 50 182
f 50 52 182
f 46 182 47
f 41 182 43
f 46 43 182
f 47 182 53
f 52 177 182
f 53 182 178
f 177 156 182
f 19 183 176
f 176 184 185
f 185 186 187
f 187 188 189
f 189 190 191
f 191 192 193
f 193 194 195
f 195 196 197
f 197 198 199
f 199 200 201
f 201 202 203
f 203 204 205
f 205 206 207
f 207 208 209
f 209 210 211
f 211 212 213
f 213 214 215
f 176 185 128
f 185 187 128
f 187 189 128
f 189 191 128
f 191 193 128
f 193 195 128
f 195 197 128
f 197 199 128
f 199 201 128
f 201 203 128
f 203 205 128
f 205 207 128
f 207 209 128
f 209 211 128
f 211 213 128
f 213 215 128
f 19 127 183
f 127 181 183
f 183 181 216
f 183 216 217
f 183 217 218
f 183 218 219
f 183 219 220
f 183 220 221
f 183 221 222
f 183 222 223
f 183 223 224
f 183 224 225
f 176 183 184
f 185 184 186
f 187 186 188
f 189 188 190
f 191 190 192
f 193 192 194
f 195 194 196
f 197 196 198
f 199 198 200
f 201 200 202
f 203 202 204
f 205 204 206
f 207 206 208
f 209 208 210
f 211 210 212
f 213 212 214
f 183 225 226
f 183 226 227
f 183 227 228
f 183 229 184
f 184 229 186
f 186 229 188
f 188 229 190
f 190 229 192
f 192 230 194
f 194 230 196
f 196 230 198
f 198 230 200
f 200 230 202
f 202 230 204
f 204 230 206
f 206 230 208
f 208 230 210
f 210 231 212
f 212 231 214
f 183 228 232
f 183 232 233
f 183 233 234
f 183 234 235
f 183 235 229
f 192 229 230
f 210 230 231
f 214 231 236
f 214 236 237
f 214 237 238
f 214 238 239
f 214 239 240
f 214 240 241
f 215 214 242
f 214 241 243
f 214 243 244
f 214 244 245
f 214 245 242
f 51 128 129
f 129 246 247
f 128 246 129
f 215 248 128
f 215 249 248
f 215 250 249
f 215 251 250
f 215 252 251
f 215 253 252
f 215 254 253
f 215 255 254
f 215 256 255
f 215 257 256
f 215 258 257
f 215 259 258
f 215 260 259
f 215 261 260
f 215 262 261
f 215 263 262
f 215 264 263
f 215 265 264
f 215 266 267
f 215 268 269
f 215 269 266
f 215 270 268
f 215 271 265
f 215 272 273
f 215 273 271
f 215 267 272
f 215 274 270
f 215 275 276
f 215 276 274
f 264 277 278
f 264 279 280
f 264 278 279
f 264 281 282
f 264 280 281
f 264 265 277
f 264 283 284
f 264 282 283
f 264 284 285
f 264 286 287
f 264 285 286
f 264 287 288
f 264 289 290
f 264 288 289
f 264 290 291
f 264 292 293
f 264 291 292
f 264 293 294
f 264 295 296
f 264 294 295
f 264 297 298
f 264 299 297
f 264 298 300
f 264 301 302
f 264 300 301
f 264 302 303
f 264 296 304
f 264 304 299
f 264 303 305
f 264 306 307
f 128 182 246
f 128 248 182
f 248 249 308
f 249 250 309
f 250 251 310
f 251 252 311
f 252 253 312
f 253 254 313
f 254 255 314
f 255 256 315
f 256 257 316
f 257 258 317
f 258 259 318
f 259 260 319
f 260 261 320
f 261 262 321
f 262 263 322
f 263 264 323
f 264 307 324
f 307 306 325
f 275 326 327
f 327 328 329
f 329 330 331
f 331 332 333
f 333 334 335
f 335 336 337
f 337 338 339
f 339 340 341
f 341 342 343
f 343 344 345
f 345 346 347
f 347 348 349
f 349 350 351
f 351 352 353
f 353 354 355
f 355 356 357
f 357 358 359
f 359 360 361
f 361 362 363
f 363 364 365
f 366 305 303
f 367 305 368
f 368 305 366
f 365 369 370
f 370 371 367
f 339 338 340
f 341 340 342
f 343 342 344
f 345 344 346
f 347 346 348
f 349 348 350
f 351 350 352
f 331 330 332
f 327 326 328
f 329 328 330
f 333 332 334
f 335 334 336
f 337 336 338
f 275 372 326
f 264 305 373
f 264 373 374
f 264 374 375
f 264 376 377
f 264 375 376
f 264 377 378
f 264 379 380
f 264 378 379
f 353 352 354
f 355 354 356
f 357 356 358
f 359 358 360
f 361 360 362
f 363 362 364
f 365 364 369
f 370 369 371
f 367 371 305
f 264 380 381
f 264 381 382
f 264 382 383
f 264 383 306
f 383 382 384
f 383 385 386
f 383 384 385
f 383 386 387
f 383 388 389
f 383 390 388
f 383 391 390
f 383 387 391
f 383 392 393
f 383 394 392
f 383 395 394
f 383 396 395
f 383 397 396
f 383 398 397
f 383 399 398
f 383 400 399
f 383 401 400
f 383 402 403
f 383 404 401
f 383 403 404
f 383 389 402
f 383 405 306
f 182 406 246
f 182 156 406
f 182 308 178
f 308 309 178
f 309 310 178
f 310 311 178
f 311 312 178
f 312 313 178
f 313 314 178
f 314 315 178
f 315 316 178
f 316 317 178
f 317 318 178
f 318 319 178
f 319 320 178
f 320 321 178
f 321 322 178
f 322 323 178
f 323 324 178
f 324 407 178
f 248 308 182
f 249 309 308
f 250 310 309
f 251 311 310
f 252 312 311
f 253 313 312
f 254 314 313
f 255 315 314
f 256 316 315
f 257 317 316
f 258 318 317
f 259 319 318
f 260 320 319
f 261 321 320
f 262 322 321
f 263 323 322
f 264 324 323
f 307 325 324
f 324 325 407
f 325 405 407
f 306 405 325
f 383 408 405
f 405 409 407
f 408 410 411
f 408 411 409
f 408 409 405
f 215 372 275
f 215 412 372
f 215 413 412
f 215 414 413
f 215 415 414
f 215 416 415
f 215 417 416
f 215 418 417
f 215 419 418
f 215 420 419
f 215 393 420
f 215 383 393
f 215 421 383
f 215 242 421
f 383 422 408
f 383 421 422
f 422 423 424
f 422 425 423
f 422 426 425
f 422 427 426
f 422 428 429
f 422 430 431
f 422 431 427
f 422 429 430
f 421 432 422
f 422 433 434
f 432 435 422
f 435 433 422
f 422 436 437
f 422 434 436
f 422 437 428
f 421 438 432
f 432 439 435
f 422 424 440
f 423 441 424
f 423 425 442
f 425 426 443
f 426 427 444
f 427 431 445
f 435 446 433
f 433 447 434
f 436 448 437
f 434 449 436
f 429 428 450
f 430 429 451
f 430 452 431
f 437 453 428
f 242 245 454
f 242 454 455
f 242 455 456
f 242 457 458
f 242 456 459
f 242 459 460
f 242 460 461
f 242 461 462
f 242 462 463
f 242 463 464
f 242 464 465
f 242 465 466
f 242 466 467
f 242 467 468
f 242 468 457
f 242 469 470
f 242 471 472
f 242 473 471
f 242 470 474
f 242 474 473
f 242 475 410
f 242 476 477
f 242 477 475
f 408 242 410
f 242 472 476
f 408 422 440
f 421 242 438
f 432 438 439
f 423 442 441
f 425 443 442
f 426 444 443
f 427 445 444
f 431 452 445
f 435 439 446
f 433 446 447
f 436 449 448
f 437 448 453
f 434 447 449
f 430 451 452
f 428 453 450
f 429 450 451
f 424 441 440
f 242 458 478
f 242 478 479
f 242 480 481
f 242 479 480
f 242 482 483
f 242 483 484
f 242 481 482
f 242 485 486
f 242 486 487
f 242 487 488
f 242 488 489
f 242 490 491
f 242 484 490
f 242 491 485
f 242 492 493
f 242 489 492
f 242 493 469
f 408 440 242
f 440 441 442
f 440 442 443
f 440 443 444
f 440 444 445
f 440 450 453
f 440 452 451
f 440 445 452
f 440 451 450
f 242 440 438
f 440 447 446
f 438 440 439
f 439 440 446
f 440 448 449
f 440 449 447
f 440 453 448
f 494 495 496
f 494 496 497
f 494 178 495
f 494 179 178
f 494 497 498
f 496 499 497
f 494 498 179
f 497 499 500
f 498 497 180
f 497 500 181
f 500 501 181
f 501 502 216
f 502 503 217
f 498 180 179
f 497 181 180
f 501 216 181
f 502 217 216
f 495 178 504
f 503 505 218
f 503 218 217
f 505 506 219
f 506 507 220
f 505 219 218
f 506 220 219
f 507 508 221
f 508 509 222
f 509 510 223
f 507 221 220
f 508 222 221
f 509 223 222
f 510 224 223
f 510 511 224
f 511 512 225
f 512 513 226
f 513 514 227
f 514 515 228
f 511 225 224
f 512 226 225
f 513 227 226
f 514 228 227
f 515 232 228
f 515 516 232
f 516 517 233
f 517 518 234
f 518 519 235
f 519 520 229
f 516 233 232
f 517 234 233
f 518 235 234
f 519 229 235
f 520 521 230
f 520 230 229
f 521 522 231
f 522 523 236
f 523 524 237
f 521 231 230
f 522 236 231
f 523 237 236
f 524 238 237
f 524 525 238
f 525 526 239
f 526 527 240
f 527 528 241
f 528 529 243
f 525 239 238
f 526 240 239
f 527 241 240
f 528 243 241
f 529 530 244
f 530 531 245
f 531 532 454
f 532 533 455
f 529 244 243
f 530 245 244
f 531 454 245
f 532 455 454
f 533 534 456
f 534 535 459
f 535 536 460
f 536 537 461
f 533 456 455
f 534 459 456
f 535 460 459
f 536 461 460
f 504 178 407
f 538 504 407
f 538 407 539
f 539 407 540
f 538 539 541
f 539 542 541
f 539 540 542
f 540 407 409
f 541 542 543
f 544 545 410
f 544 475 546
f 543 542 411
f 543 411 545
f 542 540 409
f 546 475 477
f 544 410 475
f 542 409 411
f 545 411 410
f 547 548 490
f 547 490 484
f 537 549 462
f 549 550 463
f 550 551 464
f 552 465 551
f 537 462 461
f 549 463 462
f 550 464 463
f 551 465 464
f 552 553 466
f 553 554 467
f 554 555 468
f 555 556 457
f 552 466 465
f 553 467 466
f 554 468 467
f 555 457 468
f 556 557 458
f 557 558 478
f 559 479 558
f 559 560 480
f 556 458 457
f 557 478 458
f 558 479 478
f 559 480 479
f 560 481 480
f 560 561 481
f 561 562 482
f 562 563 483
f 563 547 484
f 561 482 481
f 562 483 482
f 563 484 483
f 564 470 469
f 565 491 548
f 565 566 485
f 566 567 486
f 568 487 567
f 548 491 490
f 565 485 491
f 566 486 485
f 567 487 486
f 568 488 487
f 568 569 488
f 570 489 569
f 570 571 492
f 572 493 571
f 572 564 469
f 569 489 488
f 570 492 489
f 571 493 492
f 572 469 493
f 573 574 476
f 573 472 575
f 575 472 471
f 573 476 472
f 576 577 473
f 578 576 474
f 578 470 564
f 577 575 471
f 576 473 474
f 578 474 470
f 577 471 473
f 546 477 574
f 574 477 476
f 579 580 581
f 582 583 584
f 579 584 585
f 586 587 588
f 582 589 590
f 591 592 589
f 591 593 594
f 595 596 593
f 595 586 597
f 587 598 599
f 598 600 601
f 602 603 604
f 604 605 606
f 607 581 608
f 607 609 610
f 610 611 602
f 584 583 585
f 579 585 580
f 586 588 597
f 587 599 588
f 589 592 590
f 591 594 592
f 593 596 594
f 582 590 583
f 595 597 596
f 598 601 599
f 602 611 603
f 604 603 605
f 607 608 609
f 581 580 608
f 610 609 611
f 606 605 612
f 600 496 601
f 600 499 496
f 606 613 614
f 606 612 613
f 601 496 495
f 586 615 587
f 587 616 598
f 591 589 617
f 582 618 589
f 591 619 593
f 595 593 620
f 595 621 586
f 582 584 622
f 579 581 623
f 579 624 584
f 598 625 600
f 610 602 626
f 602 604 627
f 604 606 628
f 607 629 581
f 607 610 630
f 606 614 631
f 600 632 499
f 614 613 633
f 614 633 634
f 613 612 635
f 612 636 635
f 592 504 590
f 592 594 504
f 596 597 504
f 597 588 504
f 596 504 594
f 588 599 504
f 599 601 504
f 601 495 504
f 580 504 608
f 609 608 504
f 580 585 504
f 583 590 504
f 583 504 585
f 609 504 611
f 611 504 603
f 603 504 605
f 605 504 612
f 598 616 625
f 587 615 616
f 586 621 615
f 595 620 621
f 593 619 620
f 591 617 619
f 589 618 617
f 582 622 618
f 584 624 622
f 579 623 624
f 606 631 637
f 581 629 623
f 607 630 629
f 610 626 630
f 602 627 626
f 604 628 627
f 606 637 628
f 600 625 632
f 499 632 500
f 500 638 501
f 501 639 502
f 502 639 503
f 503 639 505
f 505 639 506
f 506 639 507
f 507 639 508
f 508 639 509
f 509 639 510
f 510 639 511
f 511 639 512
f 625 616 640
f 616 615 641
f 615 621 642
f 621 620 643
f 620 619 644
f 619 617 645
f 617 618 646
f 618 622 647
f 622 624 648
f 624 623 638
f 623 629 649
f 629 630 650
f 630 626 651
f 626 627 652
f 627 628 653
f 628 637 639
f 625 640 632
f 616 641 640
f 615 642 641
f 621 643 642
f 620 644 643
f 619 645 644
f 617 646 645
f 618 647 646
f 622 648 647
f 624 638 648
f 623 649 638
f 629 650 649
f 630 651 650
f 626 652 651
f 627 653 652
f 628 639 653
f 500 632 640
f 500 640 641
f 500 641 642
f 500 642 643
f 500 643 644
f 500 644 645
f 500 645 646
f 500 646 647
f 500 647 648
f 500 648 638
f 501 638 649
f 501 649 650
f 501 650 651
f 501 651 652
f 501 652 653
f 501 653 639
f 512 639 513
f 513 639 514
f 514 639 515
f 515 639 516
f 516 639 517
f 517 639 518
f 518 639 519
f 519 639 520
f 639 521 520
f 639 522 521
f 639 523 522
f 639 524 523
f 639 525 524
f 639 526 525
f 639 527 526
f 639 528 527
f 631 654 637
f 637 655 639
f 639 529 528
f 639 530 529
f 639 531 530
f 639 532 531
f 639 533 532
f 639 534 533
f 639 535 534
f 639 536 535
f 639 537 536
f 639 549 537
f 639 550 549
f 639 551 550
f 639 554 553
f 639 555 554
f 639 552 551
f 639 553 552
f 614 634 656
f 657 656 634
f 657 636 658
f 612 659 636
f 612 504 659
f 657 658 656
f 658 636 659
f 658 659 660
f 660 661 662
f 662 663 664
f 664 665 666
f 666 667 668
f 668 669 670
f 670 671 672
f 672 673 674
f 674 675 676
f 676 677 678
f 678 679 680
f 680 681 682
f 682 683 684
f 684 685 686
f 686 687 688
f 688 689 690
f 660 659 661
f 662 661 663
f 664 663 665
f 666 665 667
f 668 667 669
f 670 669 671
f 672 671 673
f 674 673 675
f 676 675 677
f 678 677 679
f 680 679 681
f 682 681 683
f 684 683 685
f 686 685 687
f 688 687 689
f 690 689 691
f 659 504 661
f 661 504 663
f 663 504 665
f 665 504 667
f 667 504 669
f 669 504 671
f 671 504 673
f 673 504 675
f 675 504 677
f 677 504 679
f 679 504 681
f 681 504 683
f 683 504 685
f 685 504 687
f 687 504 689
f 689 504 691
f 691 504 538
f 658 660 692
f 660 662 693
f 662 664 694
f 664 666 695
f 666 668 696
f 668 670 697
f 658 692 656
f 670 672 698
f 672 674 699
f 674 676 700
f 676 678 701
f 678 680 702
f 680 682 703
f 682 684 704
f 684 686 705
f 686 688 706
f 688 690 707
f 690 691 708
f 691 538 708
f 637 654 692
f 637 692 655
f 639 655 555
f 555 655 556
f 556 655 557
f 538 541 708
f 656 692 654
f 666 696 695
f 668 697 696
f 660 693 692
f 662 694 693
f 664 695 694
f 690 708 707
f 670 698 697
f 672 699 698
f 674 700 699
f 682 704 703
f 680 703 702
f 684 705 704
f 678 702 701
f 676 701 700
f 688 707 706
f 686 706 705
f 572 655 564
f 578 564 655
f 576 655 577
f 573 575 655
f 577 655 575
f 578 655 576
f 544 709 545
f 546 574 655
f 573 655 574
f 544 546 655
f 543 545 710
f 541 543 710
f 541 710 708
f 694 695 711
f 695 696 712
f 696 697 709
f 692 693 713
f 693 694 714
f 708 710 707
f 707 715 706
f 705 716 704
f 704 717 703
f 703 718 702
f 701 702 719
f 701 720 700
f 706 721 705
f 698 699 722
f 700 723 699
f 698 724 697
f 692 713 655
f 695 712 711
f 697 724 709
f 696 709 712
f 693 714 713
f 694 711 714
f 707 710 715
f 704 716 717
f 700 720 723
f 703 717 718
f 702 718 719
f 701 719 720
f 706 715 721
f 705 721 716
f 698 722 724
f 699 723 722
f 559 558 655
f 557 655 558
f 559 655 560
f 560 655 561
f 561 655 562
f 562 655 563
f 563 655 547
f 565 655 566
f 570 569 655
f 568 567 655
f 566 655 567
f 568 655 569
f 547 655 548
f 565 548 655
f 572 571 655
f 570 655 571
f 545 709 724
f 545 715 710
f 545 721 715
f 545 716 721
f 545 717 716
f 545 718 717
f 545 720 719
f 545 719 718
f 545 723 720
f 545 724 722
f 545 722 723
f 544 655 713
f 544 713 714
f 544 714 711
f 544 711 712
f 544 712 709
f 725 726 727
f 725 727 728
f 725 728 729
f 725 730 731
f 725 732 733
f 725 734 730
f 725 733 734
f 725 735 732
f 725 736 735
f 725 737 738
f 725 738 739
f 725 731 737
f 725 739 740
f 725 740 741
f 725 741 726
f 725 742 736
f 725 743 742
f 725 744 743
f 725 745 744
f 725 746 745
f 725 747 746
f 725 729 748
f 729 749 748
f 749 750 751
f 750 752 753
f 752 754 755
f 754 756 757
f 756 758 759
f 758 760 761
f 760 762 763
f 762 764 765
f 764 766 767
f 766 768 769
f 768 770 771
f 770 772 773
f 772 774 775
f 774 776 777
f 776 778 779
f 778 780 781
f 780 782 783
f 784 785 782
f 784 786 787
f 788 789 786
f 790 791 788
f 790 792 793
f 794 795 796
f 794 797 792
f 798 799 800
f 800 799 801
f 801 802 803
f 803 804 805
f 806 805 807
f 806 808 809
f 809 810 795
f 764 767 765
f 766 769 767
f 768 771 769
f 770 773 771
f 772 775 773
f 776 779 777
f 774 777 775
f 778 781 779
f 780 783 781
f 782 785 783
f 756 759 757
f 752 755 753
f 754 757 755
f 758 761 759
f 760 763 761
f 762 765 763
f 749 751 748
f 750 753 751
f 784 787 785
f 786 789 787
f 788 791 789
f 790 793 791
f 792 797 793
f 795 810 796
f 794 796 797
f 806 807 808
f 809 808 810
f 805 804 807
f 803 802 804
f 801 799 802
f 725 748 811
f 725 631 614
f 725 614 812
f 725 813 747
f 747 813 814
f 814 813 815
f 815 813 816
f 816 813 817
f 817 813 818
f 818 813 819
f 819 813 820
f 820 813 821
f 821 813 822
f 822 813 823
f 823 813 798
f 748 824 811
f 824 825 811
f 825 826 811
f 826 827 811
f 827 828 811
f 828 829 811
f 829 830 811
f 830 831 811
f 831 832 811
f 832 833 811
f 833 834 811
f 834 835 811
f 835 836 811
f 836 837 811
f 837 838 811
f 838 839 811
f 725 811 631
f 798 813 799
f 839 840 813
f 799 813 841
f 841 813 842
f 842 813 843
f 843 813 844
f 844 813 845
f 845 813 846
f 846 813 847
f 848 813 849
f 848 850 813
f 849 813 840
f 851 813 852
f 850 852 813
f 853 854 813
f 853 813 855
f 847 813 856
f 856 813 854
f 855 813 851
f 839 813 811
f 811 654 631
f 725 812 857
f 725 857 858
f 725 858 859
f 725 859 860
f 725 860 861
f 725 861 862
f 614 656 812
f 725 862 863
f 725 863 864
f 725 864 865
f 725 865 866
f 725 866 813
f 812 867 868
f 812 868 869
f 812 869 857
f 812 870 871
f 812 872 870
f 812 873 872
f 812 874 875
f 812 875 873
f 812 876 874
f 812 877 876
f 812 878 877
f 812 871 879
f 812 879 880
f 812 880 867
f 812 881 878
f 812 882 881
f 812 883 882
f 812 884 883
f 812 885 884
f 812 886 885
f 812 887 886
f 812 888 887
f 812 889 888
f 812 890 889
f 812 891 890
f 812 892 891
f 812 893 892
f 812 894 893
f 812 895 894
f 861 896 862
f 896 897 862
f 897 898 862
f 898 899 862
f 899 900 901
f 900 902 903
f 902 904 905
f 904 906 907
f 906 908 909
f 908 910 911
f 910 912 913
f 912 914 915
f 914 916 917
f 916 918 919
f 918 920 921
f 922 923 920
f 922 924 925
f 924 926 927
f 928 929 926
f 930 931 932
f 932 933 934
f 930 935 936
f 937 938 939
f 940 941 942
f 942 943 938
f 937 944 928
f 945 946 947
f 945 948 949
f 947 950 940
f 934 951 948
f 906 909 907
f 908 911 909
f 910 913 911
f 912 915 913
f 914 917 915
f 916 919 917
f 900 903 901
f 902 905 903
f 899 901 862
f 904 907 905
f 918 921 919
f 920 923 921
f 922 925 923
f 924 927 925
f 926 929 927
f 928 944 929
f 937 939 944
f 938 943 939
f 942 941 943
f 940 950 941
f 947 946 950
f 945 949 946
f 948 951 949
f 934 933 951
f 932 931 933
f 930 936 931
f 935 952 936
f 935 953 952
f 812 813 895
f 895 813 935
f 812 656 813
f 811 813 654
f 935 813 953
f 866 954 813
f 954 955 813
f 955 956 813
f 956 957 813
f 957 958 813
f 958 959 813
f 960 813 961
f 961 813 962
f 959 963 813
f 963 964 813
f 964 965 813
f 965 966 813
f 966 967 813
f 967 968 813
f 968 969 813
f 969 970 813
f 970 971 813
f 971 972 813
f 972 973 813
f 974 975 813
f 974 813 973
f 976 977 813
f 978 976 813
f 978 813 975
f 979 980 813
f 981 962 813
f 981 813 982
f 982 813 980
f 979 813 977
f 953 813 983
f 983 813 984
f 984 813 960
f 656 654 813
f 985 152 986
f 986 152 155
f 985 986 634
f 985 156 152
f 985 633 613
f 985 634 633
f 985 613 156
f 613 635 156
f 635 406 156
f 987 247 988
f 986 987 634
f 988 247 246
f 987 988 634
f 988 246 657
f 988 657 634
f 657 246 636
f 636 246 406
f 635 636 406
f 989 155 130
f 989 130 990
f 989 986 155
f 989 987 986
f 990 130 129
f 989 990 987
f 990 129 987
f 987 129 247
f 738 11 10
f 734 4 15
f 730 15 9
f 731 9 8
f 737 8 11
f 740 12 14
f 739 10 12
f 741 14 13
f 726 13 16
f 733 5 4
f 735 7 6
f 732 6 5
f 736 131 7
f 742 132 131
f 743 133 132
f 727 16 17
f 728 17 3
f 729 3 2
f 749 2 56
f 750 56 58
f 752 58 60
f 754 60 62
f 744 134 133
f 745 135 134
f 746 136 135
f 747 137 136
f 814 138 137
f 815 139 138
f 816 140 139
f 817 141 140
f 818 142 141
f 819 143 142
f 820 144 143
f 821 145 144
f 822 146 145
f 823 147 146
f 798 148 147
f 800 149 148
f 801 150 149
f 805 153 151
f 803 151 150
f 737 11 738
f 734 733 4
f 730 734 15
f 730 9 731
f 737 731 8
f 738 10 739
f 740 739 12
f 740 14 741
f 741 13 726
f 732 5 733
f 735 736 7
f 732 735 6
f 736 742 131
f 742 743 132
f 743 744 133
f 726 16 727
f 727 17 728
f 728 3 729
f 729 2 749
f 749 56 750
f 750 58 752
f 752 60 754
f 754 62 756
f 744 745 134
f 745 746 135
f 746 747 136
f 747 814 137
f 814 815 138
f 815 816 139
f 816 817 140
f 817 818 141
f 818 819 142
f 819 820 143
f 820 821 144
f 821 822 145
f 822 823 146
f 823 798 147
f 798 800 148
f 800 801 149
f 801 803 150
f 803 805 151
f 756 62 64
f 758 64 66
f 760 66 68
f 762 68 70
f 764 70 72
f 766 72 74
f 768 74 76
f 770 76 78
f 772 78 80
f 774 80 82
f 776 82 84
f 778 84 86
f 782 88 90
f 780 86 88
f 795 101 103
f 794 99 101
f 788 94 96
f 786 92 94
f 784 90 92
f 792 97 99
f 790 96 97
f 806 154 153
f 809 103 154
f 756 64 758
f 758 66 760
f 760 68 762
f 762 70 764
f 764 72 766
f 766 74 768
f 768 76 770
f 770 78 772
f 772 80 774
f 774 82 776
f 776 84 778
f 780 88 782
f 778 86 780
f 794 101 795
f 794 792 99
f 784 92 786
f 788 786 94
f 784 782 90
f 790 97 792
f 790 788 96
f 806 153 805
f 806 809 154
f 809 795 103
f 771 77 75
f 773 79 77
f 777 83 81
f 775 81 79
f 779 85 83
f 781 87 85
f 783 89 87
f 785 91 89
f 787 93 91
f 789 95 93
f 763 69 67
f 761 67 65
f 767 73 71
f 765 71 69
f 769 75 73
f 759 65 63
f 757 63 61
f 755 61 59
f 753 59 57
f 751 57 55
f 748 55 106
f 824 106 107
f 825 107 108
f 826 108 109
f 827 109 110
f 828 110 111
f 829 111 112
f 830 112 113
f 831 113 114
f 832 114 115
f 833 115 116
f 834 116 117
f 835 117 118
f 836 118 119
f 837 119 120
f 838 120 121
f 839 121 122
f 849 123 124
f 840 122 123
f 791 104 95
f 793 98 104
f 797 100 98
f 796 102 100
f 810 157 102
f 808 158 157
f 807 159 158
f 804 160 159
f 802 161 160
f 799 162 161
f 841 163 162
f 842 164 163
f 843 165 164
f 844 166 165
f 845 167 166
f 846 168 167
f 847 169 168
f 854 172 171
f 855 175 173
f 851 174 175
f 853 173 172
f 848 124 125
f 852 170 174
f 850 125 170
f 856 171 169
f 771 773 77
f 775 79 773
f 777 779 83
f 775 777 81
f 779 781 85
f 781 783 87
f 783 785 89
f 785 787 91
f 787 789 93
f 789 791 95
f 765 69 763
f 763 67 761
f 769 73 767
f 767 71 765
f 769 771 75
f 759 63 757
f 759 761 65
f 757 61 755
f 755 59 753
f 751 753 57
f 751 55 748
f 748 106 824
f 824 107 825
f 825 108 826
f 826 109 827
f 827 110 828
f 828 111 829
f 829 112 830
f 830 113 831
f 831 114 832
f 832 115 833
f 833 116 834
f 834 117 835
f 835 118 836
f 836 119 837
f 837 120 838
f 838 121 839
f 849 840 123
f 839 122 840
f 791 793 104
f 793 797 98
f 797 796 100
f 796 810 102
f 810 808 157
f 808 807 158
f 807 804 159
f 804 802 160
f 802 799 161
f 799 841 162
f 841 842 163
f 842 843 164
f 843 844 165
f 844 845 166
f 845 846 167
f 846 847 168
f 847 856 169
f 853 172 854
f 855 851 175
f 851 852 174
f 853 855 173
f 848 849 124
f 848 125 850
f 850 170 852
f 856 854 171
f 867 267 266
f 868 266 269
f 857 268 270
f 869 269 268
f 870 265 271
f 879 273 272
f 880 272 267
f 871 271 273
f 873 278 277
f 872 277 265
f 875 279 278
f 858 270 274
f 859 274 276
f 860 276 275
f 861 275 327
f 896 327 329
f 897 329 331
f 898 331 333
f 874 280 279
f 876 281 280
f 877 282 281
f 878 283 282
f 881 284 283
f 882 285 284
f 883 286 285
f 884 287 286
f 885 288 287
f 886 289 288
f 887 290 289
f 888 291 290
f 889 292 291
f 890 293 292
f 891 294 293
f 892 295 294
f 893 296 295
f 894 304 296
f 895 299 304
f 935 297 299
f 930 298 297
f 932 300 298
f 934 301 300
f 880 267 867
f 867 266 868
f 869 268 857
f 869 868 269
f 872 265 870
f 871 273 879
f 879 272 880
f 871 870 271
f 872 873 277
f 873 875 278
f 874 279 875
f 857 270 858
f 858 274 859
f 859 276 860
f 860 275 861
f 861 327 896
f 896 329 897
f 897 331 898
f 898 333 899
f 874 876 280
f 876 877 281
f 877 878 282
f 878 881 283
f 881 882 284
f 882 883 285
f 883 884 286
f 884 885 287
f 885 886 288
f 886 887 289
f 887 888 290
f 888 889 291
f 889 890 292
f 890 891 293
f 891 892 294
f 892 893 295
f 893 894 296
f 894 895 304
f 895 935 299
f 930 297 935
f 930 932 298
f 932 934 300
f 899 333 335
f 900 335 337
f 902 337 339
f 904 339 341
f 906 341 343
f 908 343 345
f 910 345 347
f 912 347 349
f 914 349 351
f 916 351 353
f 918 353 355
f 920 355 357
f 922 357 359
f 928 363 365
f 924 359 361
f 926 361 363
f 940 368 366
f 945 303 302
f 948 302 301
f 947 366 303
f 938 370 367
f 937 365 370
f 942 367 368
f 899 335 900
f 900 337 902
f 902 339 904
f 904 341 906
f 906 343 908
f 908 345 910
f 910 347 912
f 912 349 914
f 914 351 916
f 916 353 918
f 918 355 920
f 922 920 357
f 928 926 363
f 922 359 924
f 924 361 926
f 940 942 368
f 945 302 948
f 934 948 301
f 945 947 303
f 947 940 366
f 937 370 938
f 937 928 365
f 942 938 367
f 913 348 346
f 915 350 348
f 917 352 350
f 919 354 352
f 921 356 354
f 923 358 356
f 925 360 358
f 927 362 360
f 929 364 362
f 944 369 364
f 903 338 336
f 901 336 334
f 862 334 332
f 863 332 330
f 864 330 328
f 907 342 340
f 911 346 344
f 909 344 342
f 905 340 338
f 865 328 326
f 866 326 372
f 954 372 412
f 955 412 413
f 956 413 414
f 957 414 415
f 958 415 416
f 959 416 417
f 963 417 418
f 964 418 419
f 965 419 420
f 966 420 393
f 967 393 392
f 968 392 394
f 969 394 395
f 970 395 396
f 939 371 369
f 943 305 371
f 941 373 305
f 950 374 373
f 946 375 374
f 949 376 375
f 951 377 376
f 933 378 377
f 931 379 378
f 936 380 379
f 952 381 380
f 953 382 381
f 983 384 382
f 984 385 384
f 960 386 385
f 961 387 386
f 962 391 387
f 971 396 397
f 972 397 398
f 973 398 399
f 975 400 401
f 974 399 400
f 978 401 404
f 977 403 402
f 980 389 388
f 979 402 389
f 981 390 391
f 982 388 390
f 976 404 403
f 913 915 348
f 915 917 350
f 919 352 917
f 919 921 354
f 921 923 356
f 923 925 358
f 925 927 360
f 927 929 362
f 929 944 364
f 944 939 369
f 905 338 903
f 903 336 901
f 862 901 334
f 862 332 863
f 863 330 864
f 909 342 907
f 913 346 911
f 909 911 344
f 905 907 340
f 864 328 865
f 865 326 866
f 866 372 954
f 954 412 955
f 955 413 956
f 956 414 957
f 957 415 958
f 958 416 959
f 959 417 963
f 963 418 964
f 964 419 965
f 965 420 966
f 966 393 967
f 967 392 968
f 968 394 969
f 969 395 970
f 939 943 371
f 943 941 305
f 941 950 373
f 950 946 374
f 946 949 375
f 949 951 376
f 951 933 377
f 933 931 378
f 931 936 379
f 936 952 380
f 952 953 381
f 953 983 382
f 983 984 384
f 984 960 385
f 960 961 386
f 981 391 962
f 961 962 387
f 970 396 971
f 971 397 972
f 972 398 973
f 974 400 975
f 974 973 399
f 978 975 401
f 976 403 977
f 979 389 980
f 979 977 402
f 981 982 390
f 982 980 388
f 978 404 976

