# https://github.com/mikedh/trimesh

o button_rocker.stl
v 2.24656391 0.50183463 0.00000000
v 1.88882649 0.71625417 0.00000000
v 2.62359548 0.32351199 0.00000000
v 1.24479616 1.24479616 0.00000000
v 0.96470559 1.55382860 0.00000000
v 1.55382860 0.96470559 0.00000000
v 0.18300357 3.01629019 0.00000000
v 3.42086601 0.08166256 0.00000000
v 3.01629019 0.18300357 0.00000000
v -0.27211115 0.53879929 3.51999998
v 2.55183458 -1.34810102 3.51999998
v 3.83342719 0.02046491 0.00000000
v 3.67659974 -1.57183063 3.51999998
v 0.99991411 -0.61409724 3.51999998
v 1.49232912 -0.90923941 3.51999998
v 0.53879929 -0.27211115 3.51999998
v 0.71625417 1.88882649 0.00000000
v 0.50183463 2.24656391 0.00000000
v 0.32351199 2.62359548 0.00000000
v 0.08166256 3.42086601 0.00000000
v 0.02046491 3.83342719 0.00000000
v 0.00000000 4.25000000 0.00000000
v 1.55382860 7.53529453 0.00000000
v -1.34810102 2.55183458 3.51999998
v -0.61409724 0.99991411 3.51999998
v -1.15469527 2.01130199 3.51999998
v -1.57183063 3.67659974 3.51999998
v -1.60000002 4.25000000 3.51999998
v 4.25000000 0.00000000 0.00000000
v 8.77999973 0.00000000 0.00000000
v 8.77999973 -0.08000000 0.17600000
v 4.25000000 -1.60000002 3.51999998
v 9.57999992 -0.08000000 0.17600000
v 2.62359548 8.17648792 0.00000000
v 0.11342533 0.11342533 3.51999998
v 2.01130199 -1.15469527 3.51999998
v 3.10872173 -1.48759389 3.51999998
v 0.53879929 -0.27211115 3.59999990
v 0.11342533 0.11342533 3.59999990
v 0.99991411 -0.61409724 3.59999990
v 2.55183458 -1.34810102 3.59999990
v -0.61409724 0.99991411 3.59999990
v -0.27211115 0.53879929 3.59999990
v -0.90923941 1.49232912 3.59999990
v -1.60000002 4.25000000 3.59999990
v 2.01130199 -1.15469527 3.59999990
v 1.49232912 -0.90923941 3.59999990
v 3.10872173 -1.48759389 3.59999990
v 3.67659974 -1.57183063 3.59999990
v 4.25000000 -1.60000002 3.59999990
v -0.90923941 1.49232912 3.51999998
v -1.48759389 3.10872173 3.51999998
v -1.15469527 2.01130199 3.59999990
v -1.34810102 2.55183458 3.59999990
v -1.48759389 3.10872173 3.59999990
v -1.57183063 3.67659974 3.59999990
v 16.34869766 -1.15469527 3.59999990
v 14.10999966 -1.60000002 3.59999990
v 0.18300357 5.48370981 0.00000000
v 0.02046491 4.66657305 0.00000000
v 0.08166256 5.07913399 0.00000000
v 0.32351199 5.87640476 0.00000000
v 0.50183463 6.25343609 0.00000000
v 0.71625417 6.61117363 0.00000000
v 0.96470559 6.94617128 0.00000000
v 1.24479616 7.25520372 0.00000000
v -1.57183063 4.82340050 3.51999998
v -1.34810102 5.94816542 3.51999998
v -1.15469527 6.48869801 3.51999998
v -0.61409724 7.50008583 3.51999998
v 1.88882649 7.78374577 0.00000000
v 2.24656391 7.99816561 0.00000000
v 3.01629019 8.31699657 0.00000000
v 3.42086601 8.41833782 0.00000000
v 4.25000000 8.50000000 0.00000000
v -0.27211115 7.96120071 3.51999998
v 0.53879929 8.77211094 3.51999998
v 0.99991411 9.11409760 3.51999998
v 1.49232912 9.40923977 3.51999998
v 2.01130199 9.65469551 3.51999998
v 2.55183458 9.84810066 3.51999998
v 3.10872173 9.98759365 3.51999998
v 3.83342719 8.47953510 0.00000000
v 8.77999973 8.50000000 0.00000000
v 8.77999973 8.57999992 0.17600000
v 4.25000000 10.10000038 3.51999998
v 14.10999966 10.10000038 3.51999998
v -1.48759389 5.39127827 3.51999998
v -0.90923941 7.00767088 3.51999998
v -1.57183063 4.82340050 3.59999990
v -1.34810102 5.94816542 3.59999990
v -1.48759389 5.39127827 3.59999990
v -0.61409724 7.50008583 3.59999990
v -1.15469527 6.48869801 3.59999990
v -0.90923941 7.00767088 3.59999990
v 2.01130199 9.65469551 3.59999990
v 0.11342533 8.38657475 3.51999998
v 3.67659974 10.07183075 3.51999998
v -0.27211115 7.96120071 3.59999990
v 0.53879929 8.77211094 3.59999990
v 0.11342533 8.38657475 3.59999990
v 0.99991411 9.11409760 3.59999990
v 1.49232912 9.40923977 3.59999990
v 2.55183458 9.84810066 3.59999990
v 4.25000000 10.10000038 3.59999990
v 3.10872173 9.98759365 3.59999990
v 3.67659974 10.07183075 3.59999990
v 14.10999966 10.10000038 3.59999990
v 14.10999966 0.00000000 0.00000000
v 9.57999992 0.00000000 0.00000000
v 14.93913364 0.08166256 0.00000000
v 14.52657318 0.02046491 0.00000000
v 14.68340015 -1.57183063 3.51999998
v 9.57999992 8.50000000 0.00000000
v 17.39529419 1.55382860 0.00000000
v 15.73640442 0.32351199 0.00000000
v 15.34370995 0.18300357 0.00000000
v 16.80617142 0.96470559 0.00000000
v 16.11343575 0.50183463 0.00000000
v 16.47117424 0.71625417 0.00000000
v 17.11520386 1.24479616 0.00000000
v 15.80816555 -1.34810102 3.51999998
v 16.86767006 -0.90923941 3.51999998
v 17.36008644 -0.61409724 3.51999998
v 17.82120132 -0.27211115 3.51999998
v 18.24657440 0.11342533 3.51999998
v 17.85816574 2.24656391 0.00000000
v 17.64374542 1.88882649 0.00000000
v 18.17699623 3.01629019 0.00000000
v 18.03648758 2.62359548 0.00000000
v 18.27833748 5.07913399 0.00000000
v 18.27833748 3.42086601 0.00000000
v 18.33953476 4.66657305 0.00000000
v 18.33953476 3.83342719 0.00000000
v 18.63211060 0.53879929 3.51999998
v 19.26923943 1.49232912 3.51999998
v 19.51469612 2.01130199 3.51999998
v 19.70810127 2.55183458 3.51999998
v 19.93183136 3.67659974 3.51999998
v 18.36000061 4.25000000 0.00000000
v 19.95999908 4.25000000 3.51999998
v 14.10999966 -1.60000002 3.51999998
v 14.68340015 -1.57183063 3.59999990
v 15.25127792 -1.48759389 3.51999998
v 16.34869766 -1.15469527 3.51999998
v 18.97409630 0.99991411 3.51999998
v 15.25127792 -1.48759389 3.59999990
v 15.80816555 -1.34810102 3.59999990
v 16.86767006 -0.90923941 3.59999990
v 17.36008644 -0.61409724 3.59999990
v 17.82120132 -0.27211115 3.59999990
v 18.97409630 0.99991411 3.59999990
v 18.24657440 0.11342533 3.59999990
v 18.63211060 0.53879929 3.59999990
v 19.84759331 3.10872173 3.51999998
v 19.84759331 5.39127827 3.59999990
v 19.26923943 1.49232912 3.59999990
v 19.70810127 2.55183458 3.59999990
v 19.51469612 2.01130199 3.59999990
v 19.84759331 3.10872173 3.59999990
v 19.95999908 4.25000000 3.59999990
v 19.93183136 3.67659974 3.59999990
v 14.10999966 8.50000000 0.00000000
v 9.57999992 8.57999992 0.17600000
v 14.93913364 8.41833782 0.00000000
v 14.52657318 8.47953510 0.00000000
v 14.68340015 10.07183075 3.51999998
v 17.11520386 7.25520372 0.00000000
v 18.03648758 5.87640476 0.00000000
v 18.17699623 5.48370981 0.00000000
v 17.85816574 6.25343609 0.00000000
v 17.39529419 6.94617128 0.00000000
v 17.64374542 6.61117363 0.00000000
v 19.93183136 4.82340050 3.51999998
v 19.70810127 5.94816542 3.51999998
v 19.51469612 6.48869801 3.51999998
v 18.97409630 7.50008583 3.51999998
v 15.34370995 8.31699657 0.00000000
v 16.11343575 7.99816561 0.00000000
v 15.73640442 8.17648792 0.00000000
v 16.47117424 7.78374577 0.00000000
v 16.80617142 7.53529453 0.00000000
v 16.34869766 9.65469551 3.51999998
v 17.36008644 9.11409760 3.51999998
v 15.25127792 9.98759365 3.51999998
v 18.24657440 8.38657475 3.51999998
v 14.68340015 10.07183075 3.59999990
v 19.84759331 5.39127827 3.51999998
v 19.26923943 7.00767088 3.51999998
v 19.93183136 4.82340050 3.59999990
v 19.70810127 5.94816542 3.59999990
v 19.26923943 7.00767088 3.59999990
v 19.51469612 6.48869801 3.59999990
v 18.24657440 8.38657475 3.59999990
v 15.80816555 9.84810066 3.51999998
v 16.86767006 9.40923977 3.51999998
v 18.63211060 7.96120071 3.51999998
v 17.82120132 8.77211094 3.51999998
v 15.25127792 9.98759365 3.59999990
v 16.34869766 9.65469551 3.59999990
v 15.80816555 9.84810066 3.59999990
v 16.86767006 9.40923977 3.59999990
v 17.36008644 9.11409760 3.59999990
v 18.63211060 7.96120071 3.59999990
v 17.82120132 8.77211094 3.59999990
v 18.97409630 7.50008583 3.59999990
v 8.77999973 -0.08000000 1.10000002
v 8.77999973 8.57999992 1.10000002
v 9.57999992 -0.08000000 1.10000002
v 9.57999992 8.57999992 1.10000002
f 1 2 3
f 4 5 2
f 4 2 6
f 2 7 8
f 9 3 8
f 2 8 3
f 4 10 5
f 9 11 3
f 9 8 11
f 8 12 13
f 1 14 2
f 6 2 14
f 1 3 15
f 4 6 16
f 5 17 18
f 2 5 7
f 19 7 18
f 5 18 7
f 20 21 22
f 7 20 22
f 8 7 23
f 19 24 7
f 5 25 17
f 17 25 18
f 19 18 26
f 7 24 20
f 20 27 21
f 21 28 22
f 8 29 12
f 8 30 29
f 29 30 31
f 12 29 13
f 29 31 32
f 32 31 33
f 8 34 30
f 6 14 16
f 4 16 35
f 4 35 10
f 5 10 25
f 1 15 14
f 3 36 15
f 3 11 36
f 8 37 11
f 8 13 37
f 16 38 39
f 14 38 16
f 40 39 38
f 14 40 38
f 40 41 42
f 43 39 42
f 10 43 25
f 43 42 25
f 25 42 44
f 16 39 35
f 40 42 39
f 10 39 43
f 10 35 39
f 42 41 45
f 15 46 47
f 40 47 41
f 36 11 41
f 15 36 46
f 47 46 41
f 36 41 46
f 14 47 40
f 14 15 47
f 11 48 41
f 11 37 48
f 41 48 49
f 37 49 48
f 37 13 49
f 41 49 50
f 18 25 51
f 18 51 26
f 19 26 24
f 20 52 27
f 20 24 52
f 21 27 28
f 53 51 44
f 42 54 44
f 26 51 53
f 53 44 54
f 25 44 51
f 26 54 24
f 26 53 54
f 24 54 55
f 42 45 54
f 24 55 52
f 54 56 55
f 52 55 56
f 52 56 27
f 54 45 56
f 27 56 45
f 27 45 28
f 29 32 13
f 13 50 49
f 13 32 50
f 41 57 45
f 41 50 58
f 32 58 50
f 7 22 59
f 22 60 61
f 22 61 59
f 7 59 23
f 59 62 63
f 59 63 64
f 59 64 23
f 64 65 66
f 8 23 34
f 64 66 23
f 22 67 60
f 60 67 61
f 61 68 59
f 59 68 62
f 62 69 63
f 63 70 64
f 64 70 65
f 23 71 72
f 23 72 34
f 34 73 74
f 34 74 75
f 65 76 66
f 66 77 23
f 23 78 71
f 71 79 72
f 72 80 34
f 34 80 73
f 73 81 74
f 74 82 83
f 34 75 30
f 75 84 30
f 74 83 75
f 75 85 84
f 83 86 75
f 75 87 85
f 22 28 67
f 61 67 88
f 61 88 68
f 62 68 69
f 63 69 89
f 63 89 70
f 28 45 67
f 45 90 67
f 67 90 88
f 45 91 90
f 90 92 88
f 90 91 92
f 88 92 91
f 88 91 68
f 45 93 91
f 68 91 94
f 68 94 69
f 91 95 94
f 69 94 89
f 94 95 89
f 91 93 95
f 89 95 93
f 45 96 93
f 65 70 76
f 66 76 97
f 66 97 77
f 23 77 78
f 71 78 79
f 72 79 80
f 73 80 81
f 74 81 82
f 83 82 98
f 89 93 70
f 70 93 76
f 93 99 76
f 93 100 99
f 76 99 97
f 99 101 97
f 99 100 101
f 97 101 100
f 97 100 77
f 93 96 100
f 77 100 78
f 100 102 78
f 100 103 102
f 78 102 103
f 78 103 79
f 100 96 103
f 79 103 96
f 79 96 80
f 80 96 81
f 96 104 81
f 81 104 82
f 96 105 104
f 104 106 82
f 104 107 106
f 82 106 107
f 104 105 107
f 82 107 98
f 83 98 86
f 75 86 87
f 45 108 96
f 98 107 86
f 107 105 86
f 96 108 105
f 86 105 87
f 109 33 110
f 109 111 112
f 32 33 109
f 109 112 113
f 109 110 114
f 109 114 115
f 109 116 111
f 111 116 117
f 109 115 116
f 116 118 119
f 119 118 120
f 116 115 118
f 118 115 121
f 112 111 113
f 111 117 122
f 117 116 122
f 116 119 123
f 119 120 124
f 120 118 124
f 118 121 125
f 121 115 126
f 115 127 128
f 127 129 130
f 115 131 127
f 127 132 129
f 127 131 132
f 132 133 134
f 115 128 135
f 128 127 136
f 127 130 137
f 130 129 137
f 129 132 138
f 132 134 139
f 134 140 141
f 32 109 142
f 109 113 142
f 32 142 58
f 41 58 57
f 142 113 58
f 58 113 143
f 111 144 113
f 111 122 144
f 116 145 122
f 116 123 145
f 119 124 123
f 118 125 124
f 121 126 125
f 115 135 126
f 128 146 135
f 58 143 147
f 113 147 143
f 113 144 147
f 58 147 57
f 144 122 147
f 147 122 148
f 147 148 57
f 122 145 148
f 148 145 57
f 145 123 57
f 57 123 149
f 123 150 149
f 57 149 151
f 123 124 150
f 149 150 151
f 124 125 150
f 150 125 151
f 57 151 152
f 125 126 151
f 151 126 153
f 126 135 153
f 151 153 152
f 153 135 154
f 153 154 152
f 135 152 154
f 135 146 152
f 146 136 152
f 128 136 146
f 127 137 136
f 129 138 137
f 132 155 138
f 132 139 155
f 134 141 139
f 57 152 156
f 152 136 157
f 136 137 157
f 152 157 158
f 157 137 159
f 157 159 158
f 137 158 159
f 137 138 158
f 138 160 158
f 152 158 156
f 138 155 160
f 155 139 160
f 158 160 161
f 160 139 162
f 160 162 161
f 139 161 162
f 139 141 161
f 158 161 156
f 163 114 164
f 163 165 114
f 131 114 165
f 163 166 165
f 87 164 85
f 163 164 87
f 163 167 166
f 115 114 131
f 131 165 168
f 134 133 140
f 132 131 133
f 131 169 170
f 131 168 171
f 131 171 169
f 171 172 173
f 171 168 172
f 140 133 141
f 133 131 174
f 131 170 175
f 171 176 169
f 171 173 177
f 173 172 177
f 170 169 175
f 165 178 179
f 180 179 178
f 165 179 168
f 181 182 179
f 182 168 179
f 180 183 179
f 181 184 182
f 181 179 184
f 166 167 165
f 165 185 178
f 180 178 183
f 172 168 186
f 182 186 168
f 45 57 108
f 163 87 167
f 105 108 87
f 87 108 167
f 108 187 167
f 133 174 141
f 131 175 188
f 131 188 174
f 169 176 175
f 171 189 176
f 171 177 189
f 57 156 108
f 141 174 161
f 161 174 190
f 161 190 156
f 174 156 190
f 174 188 156
f 188 175 156
f 156 175 191
f 156 191 192
f 191 176 193
f 175 176 191
f 156 192 194
f 189 177 192
f 191 193 192
f 192 193 176
f 189 192 176
f 178 195 183
f 165 167 185
f 178 185 195
f 179 183 196
f 179 196 184
f 172 197 177
f 172 186 197
f 182 198 186
f 182 184 198
f 108 199 187
f 167 187 199
f 108 200 199
f 167 199 185
f 185 199 195
f 199 201 195
f 199 200 201
f 196 202 203
f 196 203 184
f 108 194 200
f 195 200 183
f 183 200 202
f 195 201 200
f 183 202 196
f 200 203 202
f 108 156 194
f 186 194 197
f 194 204 197
f 186 205 194
f 192 177 206
f 192 206 194
f 177 197 206
f 206 197 204
f 194 206 204
f 198 184 203
f 194 205 203
f 198 203 205
f 200 194 203
f 186 198 205
f 207 33 31
f 208 31 30
f 207 31 208
f 207 208 209
f 84 85 30
f 208 30 85
f 208 85 210
f 207 209 33
f 209 114 33
f 114 110 33
f 209 164 114
f 209 210 164
f 208 210 209
f 210 85 164

