# https://github.com/mikedh/trimesh

o button_sel.stl
v 0.63564062 0.63564062 0.00000000
v 0.96450716 0.36574680 0.00000000
v 0.79344434 0.49261561 0.00000000
v 1.33970833 0.16519761 0.00000000
v 1.14718151 0.25625598 0.00000000
v 0.49261561 0.79344434 0.00000000
v -0.28039485 0.15905108 3.51999998
v 0.15905108 -0.28039485 3.51999998
v 0.95702487 -0.75868189 3.51999998
v 0.67578483 -0.62566531 3.51999998
v 0.00000000 2.17021275 0.00000000
v 0.25625598 1.14718151 0.00000000
v 0.04170003 1.74682522 0.00000000
v 0.01045017 1.95749474 0.00000000
v 0.36574680 0.96450716 0.00000000
v 0.09344863 1.54023325 0.00000000
v 0.16519761 1.33970833 0.00000000
v 2.17021275 0.00000000 0.00000000
v -0.62566531 0.67578483 3.51999998
v -0.75868189 0.95702487 3.51999998
v -0.93908525 1.55173492 3.51999998
v -0.98473454 1.85947752 3.51999998
v 1.95749474 0.01045017 0.00000000
v 1.54023325 0.09344863 0.00000000
v 1.74682522 0.04170003 0.00000000
v 1.55173492 -0.93908525 3.51999998
v 1.85947752 -0.98473454 3.51999998
v 1.24994862 -0.86349171 3.51999998
v 2.17021275 -1.00000000 3.51999998
v 4.62978745 0.00000000 0.00000000
v -0.07146618 -0.07146618 3.51999998
v -0.46572280 0.40893692 3.51999998
v 0.40893692 -0.46572280 3.51999998
v 0.15905108 -0.28039485 3.59999990
v -0.46572280 0.40893692 3.59999990
v -0.28039485 0.15905108 3.59999990
v -0.62566531 0.67578483 3.59999990
v -0.07146618 -0.07146618 3.59999990
v 0.67578483 -0.62566531 3.59999990
v 0.40893692 -0.46572280 3.59999990
v 0.95702487 -0.75868189 3.59999990
v 1.24994862 -0.86349171 3.59999990
v -0.86349171 1.24994862 3.51999998
v -1.00000000 2.17021275 3.51999998
v -0.75868189 0.95702487 3.59999990
v -0.93908525 1.55173492 3.59999990
v -0.86349171 1.24994862 3.59999990
v -1.00000000 2.17021275 3.59999990
v -0.98473454 1.85947752 3.59999990
v 1.85947752 -0.98473454 3.59999990
v 1.55173492 -0.93908525 3.59999990
v 2.17021275 -1.00000000 3.59999990
v 4.62978745 -1.00000000 3.59999990
v 0.04170003 2.59360027 0.00000000
v 0.01045017 2.38293076 0.00000000
v 0.16519761 3.00071716 0.00000000
v 0.09344863 2.80019236 0.00000000
v 0.63564062 3.70478487 0.00000000
v 0.36574680 3.37591839 0.00000000
v 0.25625598 3.19324398 0.00000000
v 0.49261561 3.54698110 0.00000000
v 2.17021275 4.34042549 0.00000000
v -0.98473454 2.48094797 3.51999998
v -0.93908525 2.78869057 3.51999998
v -0.75868189 3.38340068 3.51999998
v -0.62566531 3.66464067 3.51999998
v -0.28039485 4.18137455 3.51999998
v 0.96450716 3.97467875 0.00000000
v 0.79344434 3.84781003 0.00000000
v 1.33970833 4.17522812 0.00000000
v 1.14718151 4.08416939 0.00000000
v -0.07146618 4.41189194 3.51999998
v 0.15905108 4.62082052 3.51999998
v 0.67578483 4.96609068 3.51999998
v 1.74682522 4.29872561 0.00000000
v 1.54023325 4.24697685 0.00000000
v 1.95749474 4.32997513 0.00000000
v 1.24994862 5.20391703 3.51999998
v 1.85947752 5.32516003 3.51999998
v 2.17021275 5.34042549 3.51999998
v 4.62978745 4.34042549 0.00000000
v -0.86349171 3.09047699 3.51999998
v -0.46572280 3.93148851 3.51999998
v -0.98473454 2.48094797 3.59999990
v -0.93908525 2.78869057 3.59999990
v -0.75868189 3.38340068 3.59999990
v -0.86349171 3.09047699 3.59999990
v -0.46572280 3.93148851 3.59999990
v -0.62566531 3.66464067 3.59999990
v 0.67578483 4.96609068 3.59999990
v 0.40893692 4.80614853 3.51999998
v 0.95702487 5.09910727 3.51999998
v -0.28039485 4.18137455 3.59999990
v 0.15905108 4.62082052 3.59999990
v -0.07146618 4.41189194 3.59999990
v 0.40893692 4.80614853 3.59999990
v 0.95702487 5.09910727 3.59999990
v 1.24994862 5.20391703 3.59999990
v 4.62978745 5.34042549 3.59999990
v 1.55173492 5.27951097 3.51999998
v 1.85947752 5.32516003 3.59999990
v 1.55173492 5.27951097 3.59999990
v 2.17021275 5.34042549 3.59999990
v 4.84250546 0.01045017 0.00000000
v 5.46029186 0.16519761 0.00000000
v 6.43425322 0.96450716 0.00000000
v 5.05317497 0.04170003 0.00000000
v 5.25976658 0.09344863 0.00000000
v 4.94052219 -0.98473454 3.51999998
v 5.24826527 -0.93908525 3.51999998
v 5.84297514 -0.75868189 3.51999998
v 6.80000019 2.17021275 0.00000000
v 5.83549261 0.36574680 0.00000000
v 5.65281868 0.25625598 0.00000000
v 6.00655556 0.49261561 0.00000000
v 6.12421513 -0.62566531 3.51999998
v 6.39106321 -0.46572280 3.51999998
v 6.16435957 0.63564062 0.00000000
v 6.64094877 -0.28039485 3.51999998
v 6.30738449 0.79344434 0.00000000
v 7.08039474 0.15905108 3.51999998
v 6.70655155 1.54023325 0.00000000
v 6.54374409 1.14718151 0.00000000
v 6.63480234 1.33970833 0.00000000
v 6.78954983 1.95749474 0.00000000
v 6.75829983 1.74682522 0.00000000
v 7.42566538 0.67578483 3.51999998
v 7.55868196 0.95702487 3.51999998
v 7.73908520 1.55173492 3.51999998
v 7.78473473 1.85947752 3.51999998
v 4.62978745 -1.00000000 3.51999998
v 5.55005121 -0.86349171 3.51999998
v 4.94052219 -0.98473454 3.59999990
v 5.24826527 -0.93908525 3.59999990
v 5.84297514 -0.75868189 3.59999990
v 5.55005121 -0.86349171 3.59999990
v 6.87146616 -0.07146618 3.51999998
v 7.26572275 0.40893692 3.51999998
v 6.87146616 -0.07146618 3.59999990
v 6.12421513 -0.62566531 3.59999990
v 6.39106321 -0.46572280 3.59999990
v 6.64094877 -0.28039485 3.59999990
v 7.80000019 2.17021275 3.59999990
v 7.08039474 0.15905108 3.59999990
v 7.42566538 0.67578483 3.59999990
v 7.26572275 0.40893692 3.59999990
v 7.66349173 1.24994862 3.51999998
v 7.80000019 2.17021275 3.51999998
v 7.66349173 1.24994862 3.59999990
v 7.55868196 0.95702487 3.59999990
v 7.73908520 1.55173492 3.59999990
v 7.78473473 1.85947752 3.59999990
v 5.46029186 4.17522812 0.00000000
v 4.84250546 4.32997513 0.00000000
v 5.05317497 4.29872561 0.00000000
v 5.25976658 4.24697685 0.00000000
v 5.55005121 5.20391703 3.51999998
v 4.94052219 5.32516003 3.51999998
v 5.24826527 5.27951097 3.51999998
v 6.16435957 3.70478487 0.00000000
v 6.70655155 2.80019236 0.00000000
v 6.54374409 3.19324398 0.00000000
v 6.63480234 3.00071716 0.00000000
v 6.43425322 3.37591839 0.00000000
v 6.30738449 3.54698110 0.00000000
v 6.78954983 2.38293076 0.00000000
v 6.75829983 2.59360027 0.00000000
v 7.08039474 4.18137455 3.51999998
v 7.78473473 2.48094797 3.51999998
v 7.73908520 2.78869057 3.51999998
v 7.55868196 3.38340068 3.51999998
v 7.42566538 3.66464067 3.51999998
v 5.83549261 3.97467875 0.00000000
v 5.65281868 4.08416939 0.00000000
v 6.00655556 3.84781003 0.00000000
v 5.84297514 5.09910727 3.51999998
v 6.39106321 4.80614853 3.51999998
v 6.87146616 4.41189194 3.51999998
v 4.62978745 5.34042549 3.51999998
v 4.94052219 5.32516003 3.59999990
v 5.24826527 5.27951097 3.59999990
v 5.84297514 5.09910727 3.59999990
v 5.55005121 5.20391703 3.59999990
v 7.66349173 3.09047699 3.51999998
v 7.26572275 3.93148851 3.51999998
v 7.78473473 2.48094797 3.59999990
v 7.73908520 2.78869057 3.59999990
v 7.66349173 3.09047699 3.59999990
v 7.26572275 3.93148851 3.59999990
v 7.55868196 3.38340068 3.59999990
v 7.42566538 3.66464067 3.59999990
v 6.64094877 4.62082052 3.51999998
v 6.12421513 4.96609068 3.51999998
v 6.87146616 4.41189194 3.59999990
v 6.12421513 4.96609068 3.59999990
v 6.39106321 4.80614853 3.59999990
v 6.64094877 4.62082052 3.59999990
v 7.08039474 4.18137455 3.59999990
f 1 2 3
f 2 4 5
f 1 4 2
f 6 1 7
f 8 1 3
f 2 8 3
f 4 9 5
f 10 2 5
f 11 12 13
f 11 13 14
f 15 1 6
f 12 1 15
f 16 12 17
f 11 1 12
f 11 18 1
f 16 13 12
f 19 12 15
f 12 20 17
f 20 16 17
f 21 13 16
f 13 22 14
f 22 11 14
f 15 6 7
f 4 23 24
f 25 24 23
f 1 18 4
f 4 18 23
f 26 24 25
f 23 27 25
f 18 27 23
f 28 4 24
f 29 18 30
f 1 31 7
f 7 32 15
f 33 2 10
f 28 9 4
f 9 10 5
f 8 31 1
f 2 33 8
f 34 31 8
f 35 36 37
f 19 32 35
f 36 7 31
f 31 34 38
f 38 36 31
f 39 37 38
f 36 32 7
f 38 37 36
f 36 35 32
f 33 34 8
f 39 38 34
f 34 33 40
f 33 39 40
f 39 34 40
f 39 33 10
f 9 39 10
f 39 9 41
f 28 42 9
f 42 39 41
f 9 42 41
f 16 20 43
f 19 15 32
f 20 12 19
f 21 16 43
f 22 13 21
f 11 22 44
f 37 20 19
f 37 19 35
f 20 37 45
f 20 45 43
f 37 46 45
f 43 45 47
f 46 43 47
f 45 46 47
f 39 48 37
f 46 21 43
f 37 48 46
f 21 46 22
f 22 46 49
f 46 48 49
f 48 22 49
f 22 48 44
f 27 26 25
f 24 26 28
f 27 18 29
f 50 39 42
f 42 26 51
f 26 42 28
f 50 42 51
f 26 50 51
f 27 50 26
f 27 29 50
f 50 29 52
f 39 53 48
f 53 39 50
f 53 50 52
f 29 53 52
f 54 11 55
f 56 11 54
f 56 54 57
f 58 11 56
f 59 56 60
f 58 56 59
f 58 59 61
f 62 11 58
f 11 63 55
f 63 54 55
f 54 64 57
f 65 56 57
f 56 65 60
f 66 59 60
f 59 67 61
f 68 58 69
f 70 58 68
f 70 68 71
f 58 61 72
f 58 72 69
f 73 68 69
f 68 74 71
f 74 70 71
f 62 18 11
f 62 58 70
f 75 70 76
f 62 70 75
f 62 75 77
f 70 78 76
f 78 75 76
f 75 79 77
f 79 62 77
f 62 80 81
f 44 63 11
f 64 54 63
f 64 82 57
f 82 65 57
f 65 66 60
f 59 66 83
f 48 63 44
f 63 48 84
f 48 85 84
f 85 63 84
f 63 85 64
f 48 86 85
f 85 82 64
f 82 85 87
f 85 86 87
f 86 82 87
f 48 88 86
f 82 86 65
f 65 86 89
f 89 66 65
f 86 88 89
f 89 88 66
f 48 90 88
f 67 59 83
f 67 72 61
f 73 69 72
f 68 73 91
f 74 68 91
f 92 70 74
f 70 92 78
f 66 88 83
f 88 67 83
f 67 88 93
f 88 94 93
f 67 93 95
f 72 67 95
f 94 95 93
f 94 72 95
f 73 72 94
f 88 90 94
f 91 73 94
f 91 94 96
f 94 90 96
f 90 91 96
f 90 74 91
f 74 90 97
f 92 74 97
f 90 98 97
f 98 92 97
f 78 92 98
f 53 99 48
f 75 78 100
f 79 75 100
f 62 79 80
f 48 99 90
f 90 101 98
f 78 98 100
f 100 98 102
f 98 101 102
f 101 100 102
f 101 79 100
f 79 101 80
f 80 101 103
f 90 99 101
f 101 99 103
f 99 80 103
f 18 104 30
f 18 105 104
f 18 106 105
f 104 105 107
f 107 105 108
f 30 104 109
f 104 107 109
f 107 108 110
f 105 111 108
f 18 112 106
f 105 113 114
f 105 115 113
f 105 106 115
f 116 105 114
f 113 116 114
f 115 117 113
f 118 119 115
f 120 121 118
f 115 120 118
f 120 115 106
f 106 122 123
f 123 122 124
f 122 106 112
f 122 125 126
f 122 112 125
f 106 121 120
f 123 127 106
f 127 123 124
f 122 128 124
f 129 122 126
f 125 130 126
f 112 130 125
f 29 30 131
f 30 109 131
f 107 110 109
f 110 108 132
f 111 132 108
f 53 29 131
f 53 131 109
f 53 109 133
f 134 53 133
f 109 134 133
f 110 134 109
f 135 53 134
f 110 132 134
f 134 132 136
f 135 134 136
f 105 116 111
f 117 116 113
f 117 115 119
f 118 137 119
f 121 137 118
f 106 138 121
f 132 135 136
f 135 132 111
f 135 139 53
f 116 135 111
f 135 116 140
f 141 135 140
f 116 141 140
f 117 141 116
f 139 135 141
f 117 119 141
f 141 119 142
f 139 141 142
f 143 53 139
f 119 139 142
f 137 139 119
f 121 139 137
f 139 121 144
f 121 138 144
f 144 145 139
f 144 138 146
f 145 144 146
f 138 145 146
f 127 138 106
f 128 127 124
f 128 122 147
f 147 122 129
f 130 129 126
f 112 148 130
f 138 127 145
f 139 145 149
f 127 128 145
f 145 128 150
f 149 145 150
f 139 149 143
f 128 149 150
f 149 128 147
f 129 149 147
f 149 129 151
f 152 149 151
f 129 152 151
f 129 130 152
f 143 149 152
f 130 143 152
f 148 143 130
f 18 62 112
f 112 62 153
f 154 62 81
f 62 154 153
f 153 154 155
f 153 155 156
f 157 153 156
f 154 81 158
f 154 159 155
f 155 157 156
f 160 161 112
f 112 153 160
f 161 162 163
f 162 161 160
f 164 162 160
f 164 160 165
f 112 161 166
f 166 161 167
f 168 164 165
f 169 112 166
f 169 166 167
f 161 170 167
f 171 161 163
f 163 162 172
f 162 164 172
f 160 153 173
f 173 153 174
f 160 173 175
f 153 176 174
f 173 174 177
f 175 173 177
f 178 160 175
f 160 168 165
f 80 179 81
f 81 179 158
f 159 154 158
f 155 159 157
f 80 99 179
f 158 179 99
f 158 99 180
f 99 181 180
f 181 158 180
f 159 158 181
f 99 182 181
f 157 181 183
f 157 159 181
f 181 182 183
f 148 112 169
f 170 169 167
f 184 170 161
f 163 172 171
f 164 185 172
f 171 184 161
f 53 143 99
f 143 148 169
f 143 169 186
f 187 143 186
f 169 170 186
f 170 187 186
f 188 143 187
f 170 188 187
f 189 143 188
f 170 184 188
f 184 171 188
f 188 171 190
f 190 171 191
f 189 188 190
f 191 172 185
f 191 171 172
f 190 191 189
f 175 177 192
f 178 175 192
f 193 174 176
f 176 153 157
f 177 174 193
f 164 168 185
f 168 160 178
f 99 143 189
f 99 194 182
f 176 157 182
f 182 157 183
f 182 193 176
f 193 182 195
f 182 196 195
f 99 189 194
f 196 193 195
f 182 194 196
f 196 177 193
f 177 196 192
f 192 196 197
f 196 194 197
f 185 168 189
f 189 168 198
f 178 194 168
f 192 194 178
f 194 189 198
f 168 194 198
f 189 191 185
f 194 192 197

